<svg width="130" height="50" viewBox="0 0 130 50" fill="none" xmlns="http://www.w3.org/2000/svg">
<path d="M42.4745 6V0.416H44.6985C45.1998 0.416 45.5838 0.56 45.8505 0.848C46.1225 1.13067 46.2585 1.52 46.2585 2.016C46.2585 2.512 46.1225 2.904 45.8505 3.192C45.5838 3.47467 45.1998 3.616 44.6985 3.616H43.1465V6H42.4745ZM43.1465 3.024H44.6985C44.9651 3.024 45.1705 2.95467 45.3145 2.816C45.4638 2.67733 45.5385 2.48 45.5385 2.224V1.808C45.5385 1.552 45.4638 1.35467 45.3145 1.216C45.1705 1.07733 44.9651 1.008 44.6985 1.008H43.1465V3.024ZM49.1658 6.096C48.8884 6.096 48.6351 6.04533 48.4058 5.944C48.1764 5.84267 47.9791 5.69867 47.8138 5.512C47.6538 5.32 47.5284 5.09333 47.4378 4.832C47.3471 4.56533 47.3018 4.26667 47.3018 3.936C47.3018 3.61067 47.3471 3.31467 47.4378 3.048C47.5284 2.78133 47.6538 2.55467 47.8138 2.368C47.9791 2.176 48.1764 2.02933 48.4058 1.928C48.6351 1.82667 48.8884 1.776 49.1658 1.776C49.4431 1.776 49.6938 1.82667 49.9178 1.928C50.1471 2.02933 50.3444 2.176 50.5098 2.368C50.6751 2.55467 50.8031 2.78133 50.8938 3.048C50.9844 3.31467 51.0298 3.61067 51.0298 3.936C51.0298 4.26667 50.9844 4.56533 50.8938 4.832C50.8031 5.09333 50.6751 5.32 50.5098 5.512C50.3444 5.69867 50.1471 5.84267 49.9178 5.944C49.6938 6.04533 49.4431 6.096 49.1658 6.096ZM49.1658 5.528C49.5124 5.528 49.7951 5.42133 50.0138 5.208C50.2324 4.99467 50.3418 4.66933 50.3418 4.232V3.64C50.3418 3.20267 50.2324 2.87733 50.0138 2.664C49.7951 2.45067 49.5124 2.344 49.1658 2.344C48.8191 2.344 48.5364 2.45067 48.3178 2.664C48.0991 2.87733 47.9898 3.20267 47.9898 3.64V4.232C47.9898 4.66933 48.0991 4.99467 48.3178 5.208C48.5364 5.42133 48.8191 5.528 49.1658 5.528ZM52.1113 1.872H52.7353L53.1753 3.656L53.6153 5.464H53.6313L54.1353 3.656L54.6553 1.872H55.2233L55.7593 3.656L56.2713 5.464H56.2873L56.7113 3.656L57.1593 1.872H57.7593L56.6633 6H55.8713L55.2953 4.016L54.9353 2.76H54.9193L54.5673 4.016L53.9913 6H53.2153L52.1113 1.872ZM60.6968 6.096C60.4142 6.096 60.1582 6.04533 59.9288 5.944C59.7048 5.84267 59.5102 5.69867 59.3448 5.512C59.1848 5.32 59.0595 5.09333 58.9688 4.832C58.8835 4.56533 58.8408 4.26667 58.8408 3.936C58.8408 3.61067 58.8835 3.31467 58.9688 3.048C59.0595 2.78133 59.1848 2.55467 59.3448 2.368C59.5102 2.176 59.7048 2.02933 59.9288 1.928C60.1582 1.82667 60.4142 1.776 60.6968 1.776C60.9742 1.776 61.2222 1.82667 61.4408 1.928C61.6595 2.02933 61.8462 2.17067 62.0008 2.352C62.1555 2.528 62.2728 2.73867 62.3528 2.984C62.4382 3.22933 62.4808 3.49867 62.4808 3.792V4.096H59.5128V4.288C59.5128 4.464 59.5395 4.62933 59.5928 4.784C59.6515 4.93333 59.7315 5.064 59.8328 5.176C59.9395 5.288 60.0675 5.376 60.2168 5.44C60.3715 5.504 60.5448 5.536 60.7368 5.536C60.9982 5.536 61.2248 5.47467 61.4168 5.352C61.6142 5.22933 61.7662 5.05333 61.8728 4.824L62.3288 5.152C62.1955 5.43467 61.9875 5.664 61.7048 5.84C61.4222 6.01067 61.0862 6.096 60.6968 6.096ZM60.6968 2.312C60.5208 2.312 60.3608 2.344 60.2168 2.408C60.0728 2.46667 59.9475 2.552 59.8408 2.664C59.7395 2.776 59.6595 2.90933 59.6008 3.064C59.5422 3.21333 59.5128 3.37867 59.5128 3.56V3.616H61.7928V3.528C61.7928 3.16 61.6915 2.86667 61.4888 2.648C61.2915 2.424 61.0275 2.312 60.6968 2.312ZM64.0355 6V1.872H64.6755V2.632H64.7155C64.7901 2.43467 64.9235 2.25867 65.1155 2.104C65.3075 1.94933 65.5715 1.872 65.9075 1.872H66.1555V2.512H65.7795C65.4328 2.512 65.1608 2.57867 64.9635 2.712C64.7715 2.84 64.6755 3.00267 64.6755 3.2V6H64.0355ZM68.9859 6.096C68.7032 6.096 68.4472 6.04533 68.2179 5.944C67.9939 5.84267 67.7992 5.69867 67.6339 5.512C67.4739 5.32 67.3486 5.09333 67.2579 4.832C67.1726 4.56533 67.1299 4.26667 67.1299 3.936C67.1299 3.61067 67.1726 3.31467 67.2579 3.048C67.3486 2.78133 67.4739 2.55467 67.6339 2.368C67.7992 2.176 67.9939 2.02933 68.2179 1.928C68.4472 1.82667 68.7032 1.776 68.9859 1.776C69.2632 1.776 69.5112 1.82667 69.7299 1.928C69.9486 2.02933 70.1352 2.17067 70.2899 2.352C70.4446 2.528 70.5619 2.73867 70.6419 2.984C70.7272 3.22933 70.7699 3.49867 70.7699 3.792V4.096H67.8019V4.288C67.8019 4.464 67.8286 4.62933 67.8819 4.784C67.9406 4.93333 68.0206 5.064 68.1219 5.176C68.2286 5.288 68.3566 5.376 68.5059 5.44C68.6606 5.504 68.8339 5.536 69.0259 5.536C69.2872 5.536 69.5139 5.47467 69.7059 5.352C69.9032 5.22933 70.0552 5.05333 70.1619 4.824L70.6179 5.152C70.4846 5.43467 70.2766 5.664 69.9939 5.84C69.7112 6.01067 69.3752 6.096 68.9859 6.096ZM68.9859 2.312C68.8099 2.312 68.6499 2.344 68.5059 2.408C68.3619 2.46667 68.2366 2.552 68.1299 2.664C68.0286 2.776 67.9486 2.90933 67.8899 3.064C67.8312 3.21333 67.8019 3.37867 67.8019 3.56V3.616H70.0819V3.528C70.0819 3.16 69.9806 2.86667 69.7779 2.648C69.5806 2.424 69.3166 2.312 68.9859 2.312ZM74.9645 5.328H74.9325C74.6819 5.84 74.2792 6.096 73.7245 6.096C73.4685 6.096 73.2365 6.04533 73.0285 5.944C72.8205 5.84267 72.6419 5.69867 72.4925 5.512C72.3485 5.32533 72.2365 5.09867 72.1565 4.832C72.0819 4.56533 72.0445 4.26667 72.0445 3.936C72.0445 3.60533 72.0819 3.30667 72.1565 3.04C72.2365 2.77333 72.3485 2.54667 72.4925 2.36C72.6419 2.17333 72.8205 2.02933 73.0285 1.928C73.2365 1.82667 73.4685 1.776 73.7245 1.776C74.0125 1.776 74.2579 1.84 74.4605 1.968C74.6685 2.09067 74.8259 2.28267 74.9325 2.544H74.9645V0.0799999H75.6045V6H74.9645V5.328ZM73.9005 5.52C74.0445 5.52 74.1805 5.50133 74.3085 5.464C74.4419 5.42667 74.5565 5.37333 74.6525 5.304C74.7485 5.22933 74.8232 5.14133 74.8765 5.04C74.9352 4.93333 74.9645 4.81333 74.9645 4.68V3.144C74.9645 3.032 74.9352 2.928 74.8765 2.832C74.8232 2.73067 74.7485 2.64533 74.6525 2.576C74.5565 2.50667 74.4419 2.45333 74.3085 2.416C74.1805 2.37333 74.0445 2.352 73.9005 2.352C73.5379 2.352 73.2525 2.46667 73.0445 2.696C72.8365 2.92 72.7325 3.216 72.7325 3.584V4.288C72.7325 4.656 72.8365 4.95467 73.0445 5.184C73.2525 5.408 73.5379 5.52 73.9005 5.52ZM79.8558 0.0799999H80.4958V2.544H80.5278C80.6344 2.28267 80.7891 2.09067 80.9918 1.968C81.1998 1.84 81.4478 1.776 81.7358 1.776C81.9918 1.776 82.2238 1.82667 82.4318 1.928C82.6398 2.02933 82.8158 2.17333 82.9598 2.36C83.1091 2.54667 83.2211 2.77333 83.2958 3.04C83.3758 3.30667 83.4158 3.60533 83.4158 3.936C83.4158 4.26667 83.3758 4.56533 83.2958 4.832C83.2211 5.09867 83.1091 5.32533 82.9598 5.512C82.8158 5.69867 82.6398 5.84267 82.4318 5.944C82.2238 6.04533 81.9918 6.096 81.7358 6.096C81.1758 6.096 80.7731 5.84 80.5278 5.328H80.4958V6H79.8558V0.0799999ZM81.5598 5.52C81.9224 5.52 82.2078 5.408 82.4158 5.184C82.6238 4.95467 82.7278 4.656 82.7278 4.288V3.584C82.7278 3.216 82.6238 2.92 82.4158 2.696C82.2078 2.46667 81.9224 2.352 81.5598 2.352C81.4158 2.352 81.2771 2.37333 81.1438 2.416C81.0158 2.45333 80.9038 2.50667 80.8078 2.576C80.7118 2.64533 80.6344 2.73067 80.5758 2.832C80.5224 2.928 80.4958 3.032 80.4958 3.144V4.68C80.4958 4.81333 80.5224 4.93333 80.5758 5.04C80.6344 5.14133 80.7118 5.22933 80.8078 5.304C80.9038 5.37333 81.0158 5.42667 81.1438 5.464C81.2771 5.50133 81.4158 5.52 81.5598 5.52ZM87.5013 1.872H88.1333L86.2853 6.96C86.2373 7.08267 86.1893 7.184 86.1413 7.264C86.0933 7.34933 86.0347 7.416 85.9653 7.464C85.896 7.512 85.808 7.54667 85.7013 7.568C85.6 7.58933 85.4747 7.6 85.3253 7.6H84.9973V7.04H85.6453L85.9573 6.16L84.4133 1.872H85.0533L86.0453 4.68L86.2373 5.352H86.2773L86.5013 4.68L87.5013 1.872Z" fill="white"/>
<g clip-path="url(#clip0_234_113)">
<path d="M17.07 28.88V41.07H4.88C2.19 41.07 0 38.89 0 36.19C0 33.49 2.18 31.32 4.88 31.32H7.32V28.88C7.31 26.19 9.5 24 12.19 24C14.88 24 17.07 26.18 17.07 28.88Z" fill="url(#paint0_linear_234_113)"/>
<path d="M24.3801 36.19C24.3801 38.88 22.1901 41.06 19.5001 41.07H17.0601V31.38C17.4401 31.34 17.8101 31.32 18.1901 31.32H19.5001C20.3601 31.32 21.2101 31.55 21.9501 31.98C23.4501 32.85 24.3801 34.46 24.3801 36.19Z" fill="url(#paint1_linear_234_113)"/>
<path d="M17.0701 41.07V43.51C17.0701 46.2 14.8901 48.38 12.2001 48.39C10.4601 48.39 8.85014 47.47 7.98014 45.96C7.54014 45.22 7.31014 44.37 7.32014 43.51V42.2C7.32014 41.82 7.34014 41.44 7.38014 41.07H17.0701Z" fill="#00FF73"/>
<path d="M17.0701 31.38V41.07H7.37012C7.91012 35.95 11.9501 31.91 17.0601 31.38H17.0701Z" fill="url(#paint2_linear_234_113)"/>
<path d="M3.05002 24.01C4.72002 24.01 6.08002 25.37 6.08002 27.04C6.08002 28.71 4.72002 30.07 3.05002 30.07C1.38002 30.07 0.0200195 28.71 0.0200195 27.04C0.0200195 25.37 1.37002 24.01 3.05002 24.01Z" fill="#00EEFF"/>
<path d="M32.55 32.56V32.51C32.55 27.86 36.03 24 40.87 24C43.53 24 45.22 24.87 46.75 26.14C46.94 26.3 47.1301 26.56 47.1301 26.89C47.1301 27.38 46.68 27.81 46.19 27.81C45.93 27.81 45.7201 27.69 45.5801 27.6C44.3101 26.47 42.8801 25.72 40.8601 25.72C37.22 25.72 34.4901 28.68 34.4901 32.47V32.52C34.4901 36.33 37.2401 39.31 40.8601 39.31C42.9001 39.31 44.34 38.6 45.75 37.31C45.89 37.17 46.1 37.05 46.34 37.05C46.8101 37.05 47.23 37.47 47.23 37.94C47.23 38.22 47.09 38.46 46.92 38.6C45.3 40.08 43.5101 41.02 40.8101 41.02C36.0601 41.02 32.5601 37.28 32.5601 32.56H32.55Z" fill="white"/>
<path d="M54.3702 36.39L52.6502 40.22C52.4902 40.62 52.1802 40.85 51.7602 40.85C51.2902 40.85 50.9102 40.47 50.9102 40C50.9102 39.86 50.9302 39.69 51.0302 39.51L57.7102 24.92C57.9502 24.4 58.3002 24.1 58.8902 24.1H58.9802C59.5402 24.1 59.9202 24.41 60.1302 24.92L66.8102 39.49C66.8802 39.65 66.9302 39.82 66.9302 39.96C66.9302 40.45 66.5302 40.85 66.0402 40.85C65.5902 40.85 65.2902 40.54 65.1202 40.17L63.4002 36.39L62.6702 34.7L58.8902 26.29L55.1102 34.7L54.3802 36.39H54.3702Z" fill="white"/>
<path d="M83.74 40.86C83.47 40.86 83.2 40.74 83.02 40.51L79.02 35.33C78.84 35.1 78.79 34.8 78.87 34.52C78.95 34.24 79.17 34.02 79.44 33.93C80.95 33.41 81.98 32.6 82.49 31.51C82.86 30.73 82.83 30.06 82.82 30C82.82 29.97 82.82 29.95 82.82 29.91C82.82 28.34 82.27 27.23 81.18 26.61C80.33 26.13 79.44 26.1 79.39 26.09H72.83V39.96C72.83 40.46 72.43 40.86 71.93 40.86C71.43 40.86 71.03 40.46 71.03 39.96V25.18C71.03 24.68 71.43 24.28 71.93 24.28H79.4C79.54 24.28 80.75 24.31 82 24.99C83.2 25.65 84.62 27.02 84.64 29.87C84.66 30.12 84.68 31.05 84.19 32.15C83.78 33.08 82.93 34.28 81.18 35.16L84.46 39.41C84.76 39.81 84.69 40.37 84.3 40.68C84.14 40.81 83.94 40.87 83.75 40.87L83.74 40.86Z" fill="white"/>
<path d="M90.77 25.1C90.77 24.58 91.19 24.16 91.69 24.16C92.19 24.16 92.63 24.58 92.63 25.1V39.91C92.63 40.43 92.21 40.85 91.69 40.85C91.17 40.85 90.77 40.43 90.77 39.91V25.1Z" fill="white"/>
<path d="M104.15 40.15L97.8 25.51C97.73 25.37 97.71 25.25 97.71 25.09C97.71 24.62 98.13 24.17 98.65 24.17C99.12 24.17 99.45 24.48 99.61 24.88L105.3 38.51L111.01 24.82C111.17 24.49 111.5 24.16 111.93 24.16C112.45 24.16 112.85 24.58 112.85 25.05C112.85 25.19 112.83 25.31 112.78 25.43L106.41 40.14C106.2 40.61 105.87 40.92 105.33 40.92H105.24C104.7 40.92 104.35 40.61 104.16 40.14L104.15 40.15Z" fill="white"/>
<path d="M125.69 34.69L121.91 26.28L118.13 34.69L117.4 36.38L115.68 40.21C115.52 40.61 115.21 40.84 114.79 40.84C114.32 40.84 113.94 40.46 113.94 39.99C113.94 39.85 113.96 39.68 114.06 39.5L120.73 24.92C120.96 24.4 121.32 24.1 121.91 24.1H122C122.56 24.1 122.94 24.41 123.15 24.92L129.83 39.49C129.9 39.65 129.95 39.82 129.95 39.96C129.95 40.45 129.55 40.85 129.06 40.85C128.61 40.85 128.31 40.54 128.14 40.17L126.42 36.39L125.69 34.7V34.69Z" fill="white"/>
<path d="M33.3899 44.59C33.3899 44.48 33.4799 44.38 33.5999 44.38C33.7199 44.38 33.8099 44.48 33.8099 44.59V46.05C33.9899 45.75 34.2899 45.5 34.7699 45.5C35.4499 45.5 35.8399 45.96 35.8399 46.62V48.18C35.8399 48.3 35.7499 48.39 35.6299 48.39C35.5099 48.39 35.4199 48.3 35.4199 48.18V46.73C35.4199 46.21 35.1399 45.88 34.6399 45.88C34.1399 45.88 33.7999 46.23 33.7999 46.76V48.18C33.7999 48.3 33.7099 48.39 33.5899 48.39C33.4699 48.39 33.3799 48.3 33.3799 48.18V44.59H33.3899Z" fill="white"/>
<path d="M42.5299 48.43C41.7599 48.43 41.1299 47.84 41.1299 46.97C41.1299 46.15 41.6999 45.5 42.4699 45.5C43.2999 45.5 43.7699 46.18 43.7699 46.92C43.7699 47.03 43.6799 47.12 43.5699 47.12H41.5399C41.5999 47.73 42.0299 48.07 42.5299 48.07C42.8799 48.07 43.1299 47.93 43.3399 47.74C43.3699 47.71 43.4099 47.69 43.4599 47.69C43.5599 47.69 43.6399 47.77 43.6399 47.87C43.6399 47.92 43.6199 47.97 43.5699 48.01C43.2999 48.26 42.9899 48.43 42.5099 48.43H42.5299ZM43.3599 46.81C43.3199 46.3 43.0199 45.86 42.4699 45.86C41.9799 45.86 41.6099 46.27 41.5599 46.81H43.3699H43.3599Z" fill="white"/>
<path d="M48.8799 47.55C48.8799 46.95 49.3699 46.63 50.0799 46.63C50.4399 46.63 50.6899 46.68 50.9399 46.75V46.65C50.9399 46.15 50.6299 45.89 50.1099 45.89C49.8299 45.89 49.5899 45.96 49.3799 46.05C49.3499 46.06 49.3299 46.07 49.2999 46.07C49.1999 46.07 49.1199 45.99 49.1199 45.89C49.1199 45.8 49.1799 45.74 49.2299 45.72C49.5099 45.6 49.7899 45.53 50.1499 45.53C50.5499 45.53 50.8499 45.63 51.0599 45.84C51.2499 46.03 51.3499 46.3 51.3499 46.66V48.19C51.3499 48.31 51.2599 48.4 51.1499 48.4C51.0399 48.4 50.9499 48.31 50.9499 48.2V47.95C50.7499 48.2 50.4299 48.43 49.9399 48.43C49.4199 48.43 48.8899 48.13 48.8899 47.56L48.8799 47.55ZM50.9499 47.33V47.06C50.7399 47 50.4699 46.94 50.1299 46.94C49.5999 46.94 49.3099 47.17 49.3099 47.52C49.3099 47.88 49.6399 48.09 50.0099 48.09C50.5299 48.09 50.9499 47.78 50.9499 47.33Z" fill="white"/>
<path d="M56.8398 44.59C56.8398 44.48 56.9298 44.38 57.0498 44.38C57.1698 44.38 57.2598 44.48 57.2598 44.59V48.18C57.2598 48.3 57.1698 48.39 57.0498 48.39C56.9298 48.39 56.8398 48.3 56.8398 48.18V44.59Z" fill="white"/>
<path d="M62.9498 47.62V45.93H62.7198C62.6198 45.93 62.5398 45.84 62.5398 45.75C62.5398 45.65 62.6298 45.57 62.7198 45.57H62.9498V44.91C62.9498 44.8 63.0398 44.7 63.1598 44.7C63.2798 44.7 63.3698 44.8 63.3698 44.91V45.57H64.0998C64.1998 45.57 64.2898 45.66 64.2898 45.75C64.2898 45.85 64.1998 45.93 64.0998 45.93H63.3698V47.57C63.3698 47.91 63.5598 48.04 63.8398 48.04C63.9898 48.04 64.0598 48 64.0898 48C64.1898 48 64.2698 48.08 64.2698 48.18C64.2698 48.26 64.2198 48.32 64.1498 48.34C64.0298 48.39 63.8998 48.42 63.7398 48.42C63.2898 48.42 62.9498 48.2 62.9498 47.63V47.62Z" fill="white"/>
<path d="M69.5698 44.59C69.5698 44.48 69.6598 44.38 69.7798 44.38C69.8998 44.38 69.9898 44.48 69.9898 44.59V46.05C70.1698 45.75 70.4698 45.5 70.9498 45.5C71.6298 45.5 72.0198 45.96 72.0198 46.62V48.18C72.0198 48.3 71.9298 48.39 71.8098 48.39C71.6898 48.39 71.5998 48.3 71.5998 48.18V46.73C71.5998 46.21 71.3198 45.88 70.8198 45.88C70.3198 45.88 69.9798 46.23 69.9798 46.76V48.18C69.9798 48.3 69.8898 48.39 69.7698 48.39C69.6498 48.39 69.5598 48.3 69.5598 48.18V44.59H69.5698Z" fill="white"/>
<path d="M83.6799 44.68C83.6799 44.54 83.7899 44.46 83.9199 44.46C84.0499 44.46 84.1699 44.55 84.1699 44.68V44.75C84.1699 44.88 84.0599 44.97 83.9199 44.97C83.7799 44.97 83.6799 44.88 83.6799 44.75V44.68ZM83.7199 45.74C83.7199 45.63 83.8099 45.53 83.9299 45.53C84.0499 45.53 84.1399 45.62 84.1399 45.74V48.17C84.1399 48.29 84.0499 48.38 83.9299 48.38C83.8099 48.38 83.7199 48.29 83.7199 48.17V45.74Z" fill="white"/>
<path d="M89.6799 45.75C89.6799 45.64 89.7699 45.54 89.8899 45.54C90.0099 45.54 90.0999 45.63 90.0999 45.75V46.05C90.2799 45.75 90.5799 45.5 91.0599 45.5C91.7399 45.5 92.1299 45.96 92.1299 46.62V48.18C92.1299 48.3 92.0399 48.39 91.9199 48.39C91.7999 48.39 91.7099 48.3 91.7099 48.18V46.73C91.7099 46.21 91.4299 45.88 90.9299 45.88C90.4299 45.88 90.0899 46.23 90.0899 46.76V48.18C90.0899 48.3 89.9999 48.39 89.8799 48.39C89.7599 48.39 89.6699 48.3 89.6699 48.18V45.75H89.6799Z" fill="white"/>
<path d="M103.79 44.59C103.79 44.48 103.88 44.38 104 44.38C104.12 44.38 104.21 44.48 104.21 44.59V46.05C104.39 45.75 104.69 45.5 105.17 45.5C105.85 45.5 106.24 45.96 106.24 46.62V48.18C106.24 48.3 106.15 48.39 106.03 48.39C105.91 48.39 105.82 48.3 105.82 48.18V46.73C105.82 46.21 105.54 45.88 105.04 45.88C104.54 45.88 104.2 46.23 104.2 46.76V48.18C104.2 48.3 104.11 48.39 103.99 48.39C103.87 48.39 103.78 48.3 103.78 48.18V44.59H103.79Z" fill="white"/>
<path d="M111.5 47.55C111.5 46.95 111.99 46.63 112.7 46.63C113.06 46.63 113.31 46.68 113.56 46.75V46.65C113.56 46.15 113.25 45.89 112.73 45.89C112.45 45.89 112.21 45.96 112 46.05C111.97 46.06 111.95 46.07 111.92 46.07C111.82 46.07 111.74 45.99 111.74 45.89C111.74 45.8 111.8 45.74 111.85 45.72C112.13 45.6 112.41 45.53 112.77 45.53C113.17 45.53 113.47 45.63 113.68 45.84C113.87 46.03 113.97 46.3 113.97 46.66V48.19C113.97 48.31 113.88 48.4 113.77 48.4C113.66 48.4 113.57 48.31 113.57 48.2V47.95C113.37 48.2 113.05 48.43 112.56 48.43C112.04 48.43 111.51 48.13 111.51 47.56L111.5 47.55ZM113.57 47.33V47.06C113.36 47 113.09 46.94 112.75 46.94C112.22 46.94 111.93 47.17 111.93 47.52C111.93 47.88 112.26 48.09 112.63 48.09C113.15 48.09 113.57 47.78 113.57 47.33Z" fill="white"/>
<path d="M119.42 45.75C119.42 45.64 119.51 45.54 119.63 45.54C119.75 45.54 119.84 45.63 119.84 45.75V46.05C120.02 45.75 120.32 45.5 120.8 45.5C121.48 45.5 121.87 45.96 121.87 46.62V48.18C121.87 48.3 121.78 48.39 121.66 48.39C121.54 48.39 121.45 48.3 121.45 48.18V46.73C121.45 46.21 121.17 45.88 120.67 45.88C120.17 45.88 119.83 46.23 119.83 46.76V48.18C119.83 48.3 119.74 48.39 119.62 48.39C119.5 48.39 119.41 48.3 119.41 48.18V45.75H119.42Z" fill="white"/>
<path d="M130 48.18C130 48.3 129.91 48.39 129.79 48.39C129.67 48.39 129.58 48.3 129.58 48.18V47.8C129.35 48.14 129.02 48.42 128.51 48.42C127.84 48.42 127.17 47.89 127.17 46.97C127.17 46.04 127.84 45.5 128.51 45.5C129.03 45.5 129.37 45.78 129.58 46.1V44.59C129.58 44.47 129.67 44.38 129.79 44.38C129.91 44.38 130 44.47 130 44.59V48.18ZM127.6 46.96C127.6 47.63 128.06 48.05 128.59 48.05C129.12 48.05 129.6 47.61 129.6 46.97C129.6 46.31 129.11 45.88 128.59 45.88C128.07 45.88 127.6 46.28 127.6 46.96Z" fill="white"/>
</g>
<defs>
<linearGradient id="paint0_linear_234_113" x1="4.48" y1="29.54" x2="14.455" y2="37.52" gradientUnits="userSpaceOnUse">
<stop stop-color="#00EEFF"/>
<stop offset="1" stop-color="#005FF0"/>
</linearGradient>
<linearGradient id="paint1_linear_234_113" x1="20.5451" y1="31.68" x2="20.5451" y2="40.8" gradientUnits="userSpaceOnUse">
<stop stop-color="#00EEFF"/>
<stop offset="1" stop-color="#00FF61"/>
</linearGradient>
<linearGradient id="paint2_linear_234_113" x1="-9.77508" y1="28.3596" x2="-4.10908" y2="35.1588" gradientUnits="userSpaceOnUse">
<stop stop-color="#005FF0"/>
<stop offset="1" stop-color="#003079"/>
</linearGradient>
<clipPath id="clip0_234_113">
<rect width="130" height="24.43" fill="white" transform="translate(0 24)"/>
</clipPath>
</defs>
</svg>
