<svg width="300" height="44" viewBox="0 0 300 44" fill="none" xmlns="http://www.w3.org/2000/svg">
<path d="M0.54541 22.55C0.545411 16.7152 2.8441 11.1195 6.9358 6.99366C11.0275 2.86786 16.577 0.550005 22.3636 0.549999L22.3636 22.55L0.54541 22.55Z" fill="white"/>
<path d="M23.4545 22.55L27.8181 22.55C30.7114 22.55 33.4862 21.3911 35.532 19.3282C37.5779 17.2653 38.7272 14.4674 38.7272 11.55C38.7272 8.63262 37.5779 5.83473 35.532 3.77183C33.4862 1.70893 30.7114 0.550001 27.8181 0.550002L23.4545 0.550002V22.55Z" fill="white"/>
<path d="M19.1684 40.2282C21.2142 38.1653 22.3636 35.3674 22.3636 32.45V23.65H0.54541L0.54541 32.45C0.54541 35.3674 1.69476 38.1653 3.74061 40.2282C5.78646 42.2911 8.56123 43.45 11.4545 43.45C14.3478 43.45 17.1225 42.2911 19.1684 40.2282Z" fill="white"/>
<path d="M49.6189 35.475V10.835H60.0916C66.2705 10.835 70.2502 14.0382 70.2502 19.4942V19.5646C70.2502 25.3726 65.8167 28.435 59.7425 28.435H56.3913V35.475H49.6189ZM56.3913 23.0846H59.6029C62.0116 23.0846 63.4778 21.8174 63.4778 19.8814V19.811C63.4778 17.699 62.0116 16.5726 59.568 16.5726H56.3913V23.0846Z" fill="white"/>
<path d="M73.1075 35.475V10.835H79.8799V29.491H91.7141V35.475H73.1075Z" fill="white"/>
<path d="M92.664 35.475L103.067 10.659H109.595L119.998 35.475H112.737L110.956 31.075H101.531L99.7854 35.475H92.664ZM103.521 25.7598H109.001L106.279 18.755L103.521 25.7598Z" fill="white"/>
<path d="M125.568 35.475V26.2526L116.282 10.835H123.997L129.024 19.811L134.086 10.835H141.661L132.376 26.147V35.475H125.568Z" fill="white"/>
<path d="M153.922 35.9678C146.312 35.9678 140.622 30.6878 140.622 23.2254V23.155C140.622 15.9742 146.207 10.3422 153.783 10.3422C158.077 10.3422 161.114 11.6798 163.697 13.9326L159.717 18.755C157.972 17.2766 156.226 16.4318 153.818 16.4318C150.292 16.4318 147.569 19.4238 147.569 23.1902V23.2606C147.569 27.2382 150.327 30.0894 154.202 30.0894C155.842 30.0894 157.099 29.7374 158.111 29.0686V26.0766H153.294V21.0782H164.535V32.1662C161.951 34.3134 158.356 35.9678 153.922 35.9678Z" fill="white"/>
<path d="M168.289 35.475V10.835H179.844C183.58 10.835 186.163 11.8206 187.804 13.5102C189.235 14.9182 189.968 16.819 189.968 19.2478V19.3182C189.968 23.0846 187.978 25.5838 184.941 26.8862L190.771 35.475H182.951L178.029 28.0126H175.062V35.475H168.289ZM175.062 22.6622H179.53C181.834 22.6622 183.161 21.5358 183.161 19.7406V19.6702C183.161 17.7342 181.764 16.7486 179.495 16.7486H175.062V22.6622Z" fill="white"/>
<path d="M205.668 35.9678C198.128 35.9678 192.542 30.3006 192.542 23.2254V23.155C192.542 16.0798 198.198 10.3422 205.738 10.3422C213.278 10.3422 218.864 16.0094 218.864 23.0846V23.155C218.864 30.2302 213.209 35.9678 205.668 35.9678ZM205.738 29.8078C209.473 29.8078 211.952 26.7806 211.952 23.2254V23.155C211.952 19.5998 209.404 16.5022 205.668 16.5022C201.968 16.5022 199.489 19.5294 199.489 23.0846V23.155C199.489 26.7102 202.038 29.8078 205.738 29.8078Z" fill="white"/>
<path d="M233.388 35.9326C226.441 35.9326 222.077 32.3774 222.077 24.6686V10.835H228.955V24.5278C228.955 28.083 230.735 29.7726 233.458 29.7726C236.181 29.7726 237.961 28.1534 237.961 24.7038V10.835H244.838V24.4926C244.838 32.4478 240.335 35.9326 233.388 35.9326Z" fill="white"/>
<path d="M248.846 35.475V10.835H255.165L265.219 23.859V10.835H271.921V35.475H265.987L255.549 21.9582V35.475H248.846Z" fill="white"/>
<path d="M276.255 35.475V10.835H285.681C294.408 10.835 299.47 15.9038 299.47 23.0142V23.0846C299.47 30.195 294.338 35.475 285.541 35.475H276.255ZM283.028 29.4206H285.785C289.835 29.4206 292.523 27.1678 292.523 23.1902V23.1198C292.523 19.1774 289.835 16.8894 285.785 16.8894H283.028V29.4206Z" fill="white"/>
</svg>
