<svg width="165" height="24" viewBox="0 0 165 24" fill="none" xmlns="http://www.w3.org/2000/svg">
<path d="M0.300781 12.3C0.300782 9.11745 1.56506 6.06521 3.8155 3.81477C6.06593 1.56434 9.11818 0.300052 12.3008 0.300049L12.3008 12.3L0.300781 12.3Z" fill="url(#paint0_linear_356_1634)"/>
<path d="M12.9008 12.3001L15.3008 12.3001C16.8921 12.3 18.4182 11.6679 19.5434 10.5427C20.6686 9.41747 21.3008 7.89135 21.3008 6.30005C21.3008 4.70875 20.6686 3.18263 19.5434 2.05741C18.4182 0.932191 16.8921 0.30005 15.3008 0.30005L12.9008 0.30005V12.3001Z" fill="url(#paint1_linear_356_1634)"/>
<path d="M10.5434 21.9427C11.6686 20.8175 12.3008 19.2913 12.3008 17.7001V12.9H0.300781L0.300781 17.7001C0.300781 19.2913 0.932922 20.8175 2.05814 21.9427C3.18336 23.0679 4.70948 23.7001 6.30078 23.7001C7.89208 23.7001 9.4182 23.0679 10.5434 21.9427Z" fill="url(#paint2_linear_356_1634)"/>
<path d="M27.291 19.35V5.91004H33.051C36.4494 5.91004 38.6382 7.65724 38.6382 10.6332V10.6716C38.6382 13.8396 36.1998 15.51 32.859 15.51H31.0158V19.35H27.291ZM31.0158 12.5916H32.7822C34.107 12.5916 34.9134 11.9004 34.9134 10.8444V10.806C34.9134 9.65404 34.107 9.03964 32.763 9.03964H31.0158V12.5916Z" fill="url(#paint3_linear_356_1634)"/>
<path d="M40.2098 19.35V5.91004H43.9346V16.086H50.4434V19.35H40.2098Z" fill="url(#paint4_linear_356_1634)"/>
<path d="M50.9658 19.35L56.6874 5.81404H60.2778L65.9994 19.35H62.0058L61.0266 16.95H55.8426L54.8826 19.35H50.9658ZM56.937 14.0508H59.9514L58.4538 10.23L56.937 14.0508Z" fill="url(#paint5_linear_356_1634)"/>
<path d="M69.0632 19.35V14.3196L63.956 5.91004H68.1992L70.964 10.806L73.748 5.91004H77.9144L72.8072 14.262V19.35H69.0632Z" fill="url(#paint6_linear_356_1634)"/>
<path d="M84.6579 19.6188C80.4723 19.6188 77.3427 16.7388 77.3427 12.6684V12.63C77.3427 8.71324 80.4147 5.64124 84.5811 5.64124C86.9427 5.64124 88.6131 6.37084 90.0339 7.59964L87.8451 10.23C86.8851 9.42364 85.9251 8.96284 84.6003 8.96284C82.6611 8.96284 81.1635 10.5948 81.1635 12.6492V12.6876C81.1635 14.8572 82.6803 16.4124 84.8115 16.4124C85.7139 16.4124 86.4051 16.2204 86.9619 15.8556V14.2236H84.3123V11.4972H90.4947V17.5452C89.0739 18.7164 87.0963 19.6188 84.6579 19.6188Z" fill="url(#paint7_linear_356_1634)"/>
<path d="M92.5598 19.35V5.91004H98.915C100.969 5.91004 102.39 6.44764 103.293 7.36924C104.08 8.13724 104.483 9.17404 104.483 10.4988V10.5372C104.483 12.5916 103.389 13.9548 101.718 14.6652L104.925 19.35H100.624L97.9166 15.2796H96.2846V19.35H92.5598ZM96.2846 12.3612H98.7422C100.009 12.3612 100.739 11.7468 100.739 10.7676V10.7292C100.739 9.67324 99.971 9.13564 98.723 9.13564H96.2846V12.3612Z" fill="url(#paint8_linear_356_1634)"/>
<path d="M113.118 19.6188C108.971 19.6188 105.899 16.5276 105.899 12.6684V12.63C105.899 8.77084 109.009 5.64124 113.157 5.64124C117.304 5.64124 120.376 8.73244 120.376 12.5916V12.63C120.376 16.4892 117.265 19.6188 113.118 19.6188ZM113.157 16.2588C115.211 16.2588 116.574 14.6076 116.574 12.6684V12.63C116.574 10.6908 115.173 9.00124 113.118 9.00124C111.083 9.00124 109.72 10.6524 109.72 12.5916V12.63C109.72 14.5692 111.121 16.2588 113.157 16.2588Z" fill="url(#paint9_linear_356_1634)"/>
<path d="M128.364 19.5996C124.543 19.5996 122.143 17.6604 122.143 13.4556V5.91004H125.926V13.3788C125.926 15.318 126.905 16.2396 128.402 16.2396C129.9 16.2396 130.879 15.3564 130.879 13.4748V5.91004H134.662V13.3596C134.662 17.6988 132.185 19.5996 128.364 19.5996Z" fill="url(#paint10_linear_356_1634)"/>
<path d="M136.866 19.35V5.91004H140.341L145.871 13.014V5.91004H149.557V19.35H146.293L140.552 11.9772V19.35H136.866Z" fill="url(#paint11_linear_356_1634)"/>
<path d="M151.941 19.35V5.91004H157.125C161.925 5.91004 164.709 8.67483 164.709 12.5532V12.5916C164.709 16.47 161.887 19.35 157.048 19.35H151.941ZM155.666 16.0476H157.183C159.41 16.0476 160.888 14.8188 160.888 12.6492V12.6108C160.888 10.4604 159.41 9.21244 157.183 9.21244H155.666V16.0476Z" fill="url(#paint12_linear_356_1634)"/>
<defs>
<linearGradient id="paint0_linear_356_1634" x1="21.3008" y1="23.7" x2="0.30078" y2="0.30005" gradientUnits="userSpaceOnUse">
<stop stop-color="#01FB85"/>
<stop offset="0.745" stop-color="#00EEFF"/>
</linearGradient>
<linearGradient id="paint1_linear_356_1634" x1="21.3008" y1="23.7" x2="0.30078" y2="0.30005" gradientUnits="userSpaceOnUse">
<stop stop-color="#01FB85"/>
<stop offset="0.745" stop-color="#00EEFF"/>
</linearGradient>
<linearGradient id="paint2_linear_356_1634" x1="21.3008" y1="23.7" x2="0.30078" y2="0.30005" gradientUnits="userSpaceOnUse">
<stop stop-color="#01FB85"/>
<stop offset="0.745" stop-color="#00EEFF"/>
</linearGradient>
<linearGradient id="paint3_linear_356_1634" x1="26.1006" y1="1.50004" x2="165.451" y2="22.65" gradientUnits="userSpaceOnUse">
<stop stop-color="#01317A"/>
<stop offset="0.495" stop-color="#018DF5"/>
<stop offset="1" stop-color="#00EEFF"/>
</linearGradient>
<linearGradient id="paint4_linear_356_1634" x1="26.1006" y1="1.50004" x2="165.451" y2="22.65" gradientUnits="userSpaceOnUse">
<stop stop-color="#01317A"/>
<stop offset="0.495" stop-color="#018DF5"/>
<stop offset="1" stop-color="#00EEFF"/>
</linearGradient>
<linearGradient id="paint5_linear_356_1634" x1="26.1006" y1="1.50004" x2="165.451" y2="22.65" gradientUnits="userSpaceOnUse">
<stop stop-color="#01317A"/>
<stop offset="0.495" stop-color="#018DF5"/>
<stop offset="1" stop-color="#00EEFF"/>
</linearGradient>
<linearGradient id="paint6_linear_356_1634" x1="26.1006" y1="1.50004" x2="165.451" y2="22.65" gradientUnits="userSpaceOnUse">
<stop stop-color="#01317A"/>
<stop offset="0.495" stop-color="#018DF5"/>
<stop offset="1" stop-color="#00EEFF"/>
</linearGradient>
<linearGradient id="paint7_linear_356_1634" x1="26.1006" y1="1.50004" x2="165.451" y2="22.65" gradientUnits="userSpaceOnUse">
<stop stop-color="#01317A"/>
<stop offset="0.495" stop-color="#018DF5"/>
<stop offset="1" stop-color="#00EEFF"/>
</linearGradient>
<linearGradient id="paint8_linear_356_1634" x1="26.1006" y1="1.50004" x2="165.451" y2="22.65" gradientUnits="userSpaceOnUse">
<stop stop-color="#01317A"/>
<stop offset="0.495" stop-color="#018DF5"/>
<stop offset="1" stop-color="#00EEFF"/>
</linearGradient>
<linearGradient id="paint9_linear_356_1634" x1="26.1006" y1="1.50004" x2="165.451" y2="22.65" gradientUnits="userSpaceOnUse">
<stop stop-color="#01317A"/>
<stop offset="0.495" stop-color="#018DF5"/>
<stop offset="1" stop-color="#00EEFF"/>
</linearGradient>
<linearGradient id="paint10_linear_356_1634" x1="26.1006" y1="1.50004" x2="165.451" y2="22.65" gradientUnits="userSpaceOnUse">
<stop stop-color="#01317A"/>
<stop offset="0.495" stop-color="#018DF5"/>
<stop offset="1" stop-color="#00EEFF"/>
</linearGradient>
<linearGradient id="paint11_linear_356_1634" x1="26.1006" y1="1.50004" x2="165.451" y2="22.65" gradientUnits="userSpaceOnUse">
<stop stop-color="#01317A"/>
<stop offset="0.495" stop-color="#018DF5"/>
<stop offset="1" stop-color="#00EEFF"/>
</linearGradient>
<linearGradient id="paint12_linear_356_1634" x1="26.1006" y1="1.50004" x2="165.451" y2="22.65" gradientUnits="userSpaceOnUse">
<stop stop-color="#01317A"/>
<stop offset="0.495" stop-color="#018DF5"/>
<stop offset="1" stop-color="#00EEFF"/>
</linearGradient>
</defs>
</svg>
