<svg width="40" height="40" viewBox="0 0 40 40" fill="none" xmlns="http://www.w3.org/2000/svg">
    <g clip-path="url(#clip0_526_16619)">
        <path d="M8 -20H32V28C32 34.6274 26.6274 40 20 40C13.3726 40 8 34.6274 8 28L8 -20Z"
            fill="#8BC34A" />
        <g clip-path="url(#clip1_526_16619)">
            <path
                d="M20 40C26.6274 40 32 34.6274 32 28C32 21.3726 26.6274 16 20 16C13.3726 16 8 21.3726 8 28C8 34.6274 13.3726 40 20 40Z"
                fill="#8BC34A" />
            <path
                d="M19.9999 35.2095C18.5564 35.2097 17.1488 34.7597 15.973 33.9222C14.7973 33.0847 13.912 31.9014 13.4404 30.537C13.4004 30.434 13.3817 30.3239 13.3852 30.2134C13.3887 30.1029 13.4145 29.9943 13.4609 29.8939C13.5073 29.7936 13.5735 29.7037 13.6555 29.6295C13.7374 29.5553 13.8335 29.4984 13.938 29.4622C14.0424 29.426 14.1531 29.4111 14.2634 29.4186C14.3737 29.4261 14.4813 29.4558 14.5799 29.5058C14.6785 29.5558 14.766 29.6252 14.8372 29.7098C14.9084 29.7943 14.9618 29.8924 14.9942 29.9981C15.3522 31.0411 16.0271 31.9463 16.9245 32.5871C17.822 33.2279 18.8972 33.5724 19.9999 33.5724C21.1027 33.5724 22.1779 33.2279 23.0754 32.5871C23.9728 31.9463 24.6477 31.0411 25.0057 29.9981C25.0381 29.8924 25.0915 29.7943 25.1627 29.7098C25.2339 29.6252 25.3214 29.5558 25.42 29.5058C25.5186 29.4558 25.6262 29.4261 25.7365 29.4186C25.8468 29.4111 25.9575 29.426 26.0619 29.4622C26.1664 29.4984 26.2625 29.5553 26.3444 29.6295C26.4264 29.7037 26.4926 29.7936 26.539 29.8939C26.5854 29.9943 26.6112 30.1029 26.6147 30.2134C26.6182 30.3239 26.5995 30.434 26.5595 30.537C26.0879 31.9014 25.2026 33.0847 24.0269 33.9222C22.8511 34.7597 21.4435 35.2097 19.9999 35.2095Z"
                fill="white" />
            <path
                d="M23.977 26.6518C24.8481 26.6518 25.5542 25.9457 25.5542 25.0747C25.5542 24.2037 24.8481 23.4976 23.977 23.4976C23.106 23.4976 22.3999 24.2037 22.3999 25.0747C22.3999 25.9457 23.106 26.6518 23.977 26.6518Z"
                fill="white" />
            <path
                d="M16.0228 26.6518C16.8939 26.6518 17.6 25.9457 17.6 25.0747C17.6 24.2037 16.8939 23.4976 16.0228 23.4976C15.1518 23.4976 14.4457 24.2037 14.4457 25.0747C14.4457 25.9457 15.1518 26.6518 16.0228 26.6518Z"
                fill="white" />
        </g>
    </g>
    <defs>
        <clipPath id="clip0_526_16619">
            <rect width="40" height="40" fill="white" />
        </clipPath>
        <clipPath id="clip1_526_16619">
            <rect width="24" height="24" fill="white" transform="translate(8 16)" />
        </clipPath>
    </defs>
</svg>