<svg width="40" height="40" viewBox="0 0 40 40" fill="none" xmlns="http://www.w3.org/2000/svg">
    <g clip-path="url(#clip0_526_10600)">
        <path d="M8 -20H32V28C32 34.6274 26.6274 40 20 40C13.3726 40 8 34.6274 8 28L8 -20Z"
            fill="#F44336" />
        <g clip-path="url(#clip1_526_10600)">
            <path
                d="M20 40C26.6274 40 32 34.6274 32 28C32 21.3726 26.6274 16 20 16C13.3726 16 8 21.3726 8 28C8 34.6274 13.3726 40 20 40Z"
                fill="#F44336" />
            <path
                d="M19.9999 29.4168C21.4435 29.4167 22.8511 29.8667 24.0269 30.7042C25.2026 31.5417 26.0879 32.725 26.5595 34.0893C26.5994 34.1924 26.6182 34.3024 26.6147 34.4129C26.6112 34.5234 26.5854 34.6321 26.539 34.7324C26.4925 34.8327 26.4264 34.9227 26.3444 34.9968C26.2624 35.071 26.1664 35.1279 26.0619 35.1642C25.9575 35.2004 25.8468 35.2152 25.7365 35.2077C25.6262 35.2002 25.5185 35.1706 25.42 35.1206C25.3214 35.0705 25.2339 35.0012 25.1627 34.9166C25.0915 34.832 25.0381 34.7339 25.0056 34.6283C24.6477 33.5852 23.9728 32.6801 23.0753 32.0393C22.1779 31.3985 21.1027 31.054 19.9999 31.054C18.8972 31.054 17.822 31.3985 16.9245 32.0393C16.0271 32.6801 15.3522 33.5852 14.9942 34.6283C14.9618 34.7339 14.9084 34.832 14.8372 34.9166C14.766 35.0012 14.6785 35.0705 14.5799 35.1206C14.4813 35.1706 14.3737 35.2002 14.2634 35.2077C14.1531 35.2152 14.0424 35.2004 13.9379 35.1642C13.8335 35.1279 13.7374 35.071 13.6555 34.9968C13.5735 34.9227 13.5073 34.8327 13.4609 34.7324C13.4144 34.6321 13.3887 34.5234 13.3852 34.4129C13.3816 34.3024 13.4004 34.1924 13.4404 34.0893C13.912 32.725 14.7973 31.5417 15.973 30.7042C17.1487 29.8667 18.5564 29.4167 19.9999 29.4168Z"
                fill="white" />
            <path
                d="M23.977 26.6518C24.8481 26.6518 25.5542 25.9457 25.5542 25.0747C25.5542 24.2037 24.8481 23.4976 23.977 23.4976C23.106 23.4976 22.3999 24.2037 22.3999 25.0747C22.3999 25.9457 23.106 26.6518 23.977 26.6518Z"
                fill="white" />
            <path
                d="M16.0228 26.6518C16.8939 26.6518 17.6 25.9457 17.6 25.0747C17.6 24.2037 16.8939 23.4976 16.0228 23.4976C15.1518 23.4976 14.4457 24.2037 14.4457 25.0747C14.4457 25.9457 15.1518 26.6518 16.0228 26.6518Z"
                fill="white" />
        </g>
    </g>
    <defs>
        <clipPath id="clip0_526_10600">
            <rect width="40" height="40" fill="white" />
        </clipPath>
        <clipPath id="clip1_526_10600">
            <rect width="24" height="24" fill="white" transform="translate(8 16)" />
        </clipPath>
    </defs>
</svg>