<svg width="40" height="40" viewBox="0 0 40 40" fill="none" xmlns="http://www.w3.org/2000/svg">
    <g clip-path="url(#clip0_526_20480)">
        <path d="M8 -20H32V28C32 34.6274 26.6274 40 20 40C13.3726 40 8 34.6274 8 28L8 -20Z"
            fill="#455A64" />
        <g clip-path="url(#clip1_526_20480)">
            <path fill-rule="evenodd" clip-rule="evenodd"
                d="M18.3645 19.1484C18.8954 19.0509 19.4421 19 20 19C24.9705 19 29 23.0294 29 28C29 32.9705 24.9705 37 20 37C19.4421 37 18.8954 36.9492 18.3645 36.8517C17.9571 36.7768 17.6875 36.3859 17.7623 35.9785C17.8372 35.5711 18.2281 35.3015 18.6355 35.3763C19.0774 35.4575 19.5334 35.5 20 35.5C24.1421 35.5 27.5 32.1421 27.5 28C27.5 23.8579 24.1421 20.5 20 20.5C19.5334 20.5 19.0774 20.5425 18.6355 20.6237C18.2281 20.6985 17.8372 20.4289 17.7623 20.0215C17.6875 19.6141 17.9571 19.2232 18.3645 19.1484ZM16.5242 20.4782C16.7316 20.8367 16.6091 21.2955 16.2505 21.5029C15.2274 22.0948 14.3566 22.9217 13.7125 23.9096C13.4862 24.2566 13.0215 24.3545 12.6746 24.1283C12.3276 23.902 12.2297 23.4373 12.4559 23.0904C13.2283 21.9058 14.272 20.9145 15.4995 20.2045C15.858 19.9971 16.3168 20.1196 16.5242 20.4782ZM24.2652 25.2049C24.5662 25.4895 24.5796 25.9641 24.2951 26.2652L19.4703 31.3699C18.9913 31.8767 18.1962 31.8767 17.7172 31.3699L15.7049 29.2409C15.4204 28.9398 15.4338 28.4651 15.7348 28.1806C16.0359 27.8961 16.5105 27.9095 16.7951 28.2105L18.5938 30.1136L23.2049 25.2348C23.4894 24.9338 23.9641 24.9204 24.2652 25.2049ZM12.1338 25.3945C12.5372 25.4882 12.7883 25.8913 12.6945 26.2948C12.5674 26.8418 12.5 27.4126 12.5 28C12.5 28.5874 12.5674 29.1581 12.6945 29.7052C12.7883 30.1087 12.5372 30.5118 12.1338 30.6055C11.7303 30.6993 11.3272 30.4482 11.2335 30.0448C11.0806 29.3871 11 28.7025 11 28C11 27.2975 11.0806 26.6129 11.2335 25.9552C11.3272 25.5518 11.7303 25.3007 12.1338 25.3945ZM12.6746 31.8717C13.0215 31.6455 13.4862 31.7434 13.7125 32.0904C14.3566 33.0783 15.2274 33.9052 16.2505 34.4971C16.6091 34.7045 16.7316 35.1633 16.5242 35.5218C16.3168 35.8804 15.858 36.0029 15.4995 35.7955C14.272 35.0855 13.2283 34.0942 12.4559 32.9096C12.2297 32.5626 12.3276 32.098 12.6746 31.8717Z"
                fill="white" />
        </g>
    </g>
    <defs>
        <clipPath id="clip0_526_20480">
            <rect width="40" height="40" fill="white" />
        </clipPath>
        <clipPath id="clip1_526_20480">
            <rect width="18" height="18" fill="white" transform="translate(11 19)" />
        </clipPath>
    </defs>
</svg>