<svg width="12" height="12" viewBox="0 0 12 12" fill="none" xmlns="http://www.w3.org/2000/svg">
<path d="M8.8687 0.868802C9.0163 0.715985 9.19285 0.594094 9.38806 0.510239C9.58326 0.426385 9.79321 0.382247 10.0057 0.380401C10.2181 0.378555 10.4288 0.419038 10.6254 0.499487C10.8221 0.579936 11.0007 0.698741 11.1509 0.84897C11.3012 0.999198 11.42 1.17784 11.5004 1.37448C11.5809 1.57111 11.6214 1.7818 11.6195 1.99424C11.6177 2.20669 11.5735 2.41664 11.4897 2.61185C11.4058 2.80706 11.2839 2.98361 11.1311 3.1312L10.4967 3.7656L8.2343 1.5032L8.8687 0.868802ZM7.1031 2.6344L0.399902 9.3376V11.6H2.6623L9.3663 4.8968L7.1023 2.6344H7.1031Z" fill="#212121"/>
</svg>
