<svg xmlns="http://www.w3.org/2000/svg" width="16" height="16" viewBox="0 0 16 16" fill="none">
    <path
        d="M7.99994 6.82402L8.35349 7.17757L10.9878 9.81192C10.9879 9.81194 10.9879 9.81196 10.9879 9.81197C11.0441 9.86818 11.1204 9.89976 11.1999 9.89976C11.2794 9.89976 11.3557 9.8682 11.4119 9.81203C11.412 9.81199 11.412 9.81195 11.412 9.81192M7.99994 6.82402L11.7655 9.03433C11.9155 9.18435 11.9998 9.3878 11.9998 9.59993C11.9998 9.81206 11.9155 10.0155 11.7655 10.1655L11.412 9.81192M7.99994 6.82402L7.64638 7.17757L5.01579 9.80816C4.95948 9.86137 4.88472 9.89076 4.80716 9.89008C4.7285 9.8894 4.65326 9.85785 4.59763 9.80223C4.54201 9.74661 4.51046 9.67136 4.50978 9.5927C4.5091 9.51514 4.53849 9.44038 4.5917 9.38407L7.78784 6.18793C7.78785 6.18792 7.78787 6.1879 7.78789 6.18788C7.84414 6.13167 7.92041 6.1001 7.99994 6.1001C8.07948 6.1001 8.15578 6.13169 8.21203 6.18793L11.4119 9.38783M7.99994 6.82402L11.4119 9.38783M11.412 9.81192C11.4682 9.75567 11.4998 9.67943 11.4998 9.59993C11.4998 9.52038 11.4682 9.44409 11.4119 9.38783M11.412 9.81192L11.4119 9.38783"
        fill="white" stroke="white" />
</svg>