<svg width="14" height="12" viewBox="0 0 14 12" fill="none" xmlns="http://www.w3.org/2000/svg">
<path fill-rule="evenodd" clip-rule="evenodd" d="M1.39961 0.400024C1.18744 0.400024 0.983953 0.48431 0.833924 0.634339C0.683895 0.784368 0.599609 0.987851 0.599609 1.20002V10.8C0.599609 11.0122 0.683895 11.2157 0.833924 11.3657C0.983953 11.5157 1.18744 11.6 1.39961 11.6C1.61178 11.6 1.81527 11.5157 1.96529 11.3657C2.11532 11.2157 2.19961 11.0122 2.19961 10.8V1.20002C2.19961 0.987851 2.11532 0.784368 1.96529 0.634339C1.81527 0.48431 1.61178 0.400024 1.39961 0.400024ZM9.63401 7.83443C9.48828 7.98531 9.40765 8.18739 9.40947 8.39715C9.41129 8.6069 9.49543 8.80755 9.64375 8.95588C9.79208 9.10421 9.99273 9.18834 10.2025 9.19016C10.4122 9.19199 10.6143 9.11135 10.7652 8.96562L13.1652 6.56562C13.3152 6.4156 13.3994 6.21216 13.3994 6.00002C13.3994 5.78789 13.3152 5.58445 13.1652 5.43442L10.7652 3.03442C10.6914 2.95802 10.6031 2.89707 10.5055 2.85514C10.4079 2.81322 10.303 2.79115 10.1967 2.79022C10.0905 2.7893 9.98516 2.80954 9.88685 2.84977C9.78853 2.88999 9.69921 2.94939 9.62409 3.02451C9.54898 3.09962 9.48958 3.18894 9.44935 3.28726C9.40913 3.38558 9.38889 3.49092 9.38981 3.59715C9.39073 3.70337 9.4128 3.80835 9.45473 3.90595C9.49665 4.00355 9.5576 4.09183 9.63401 4.16562L10.6684 5.20002H4.59961C4.38744 5.20002 4.18395 5.28431 4.03392 5.43434C3.88389 5.58437 3.79961 5.78785 3.79961 6.00002C3.79961 6.2122 3.88389 6.41568 4.03392 6.56571C4.18395 6.71574 4.38744 6.80002 4.59961 6.80002H10.6684L9.63401 7.83443Z" fill="#90A4AE"/>
</svg>
