<svg xmlns="http://www.w3.org/2000/svg" width="40" height="40" viewBox="0 0 40 40" fill="none">
  <path d="M30 30L33.3333 28.3333V24.1667" fill="currentColor" />
  <path
    d="M23.3333 16.6667L20 18.3333M20 18.3333L16.6666 16.6667M20 18.3333V22.5M33.3333 11.6667L30 13.3333M33.3333 11.6667L30 10M33.3333 11.6667V15.8333M23.3333 6.66667L20 5L16.6666 6.66667M6.66663 11.6667L9.99996 10M6.66663 11.6667L9.99996 13.3333M6.66663 11.6667V15.8333M20 35L16.6666 33.3333M20 35L23.3333 33.3333M20 35V30.8333M9.99996 30L6.66663 28.3333V24.1667M30 30L33.3333 28.3333V24.1667"
    stroke="currentColor"
    stroke-width="2"
    stroke-linecap="round"
    stroke-linejoin="round"
  />
</svg>
