<svg xmlns="http://www.w3.org/2000/svg" width="16" height="16" viewBox="0 0 16 16" fill="none">
    <path
        d="M8.00007 9.17595L7.64652 8.82239L5.01217 6.18805C5.01216 6.18803 5.01214 6.18801 5.01212 6.18799C4.95587 6.13179 4.8796 6.10021 4.80007 6.10021C4.72057 6.10021 4.64433 6.13177 4.58808 6.18794C4.58804 6.18798 4.58801 6.18801 4.58797 6.18805M8.00007 9.17595L4.58797 6.18805M8.00007 9.17595L8.35363 8.82239L10.988 6.18799L10.9881 6.18805L10.9941 6.1818C11.0218 6.15314 11.0549 6.13029 11.0915 6.11457C11.1281 6.09884 11.1675 6.09057 11.2073 6.09022C11.2471 6.08988 11.2866 6.09747 11.3235 6.11255C11.3604 6.12763 11.3939 6.14991 11.422 6.17808C11.4502 6.20625 11.4725 6.23974 11.4876 6.27661L11.9503 6.08728L11.4876 6.27661C11.5026 6.31348 11.5102 6.35299 11.5099 6.39282C11.5095 6.43265 11.5013 6.47202 11.4855 6.50862C11.4698 6.54522 11.447 6.57832 11.4183 6.606L11.4183 6.60594L11.4121 6.61209L8.21217 9.81203C8.21216 9.81205 8.21214 9.81207 8.21212 9.81209C8.15587 9.8683 8.0796 9.89987 8.00007 9.89987C7.92055 9.89987 7.84428 9.86829 7.78803 9.81209C7.78801 9.81207 7.78799 9.81205 7.78797 9.81203L4.58808 6.61214M8.00007 9.17595L4.58808 6.61214M4.58797 6.18805C4.5318 6.2443 4.50024 6.32054 4.50024 6.40004C4.50024 6.47956 4.53182 6.55583 4.58803 6.61209M4.58797 6.18805L4.58803 6.61209M4.58803 6.61209L4.58808 6.61214M4.58803 6.61209L4.58808 6.61214"
        fill="white" stroke="white" />
</svg>