<svg width="14" height="14" viewBox="0 0 14 14" fill="none" xmlns="http://www.w3.org/2000/svg">
  <path
    fill-rule="evenodd"
    clip-rule="evenodd"
    d="M13.4 6.99998C13.4 8.69736 12.7257 10.3252 11.5255 11.5255C10.3252 12.7257 8.69736 13.4 6.99998 13.4C5.30259 13.4 3.67472 12.7257 2.47449 11.5255C1.27426 10.3252 0.599976 8.69736 0.599976 6.99998C0.599976 5.30259 1.27426 3.67472 2.47449 2.47449C3.67472 1.27426 5.30259 0.599976 6.99998 0.599976C8.69736 0.599976 10.3252 1.27426 11.5255 2.47449C12.7257 3.67472 13.4 5.30259 13.4 6.99998ZM8.59998 4.59998C8.59998 5.02432 8.4314 5.43129 8.13135 5.73135C7.83129 6.0314 7.42432 6.19998 6.99998 6.19998C6.57563 6.19998 6.16866 6.0314 5.8686 5.73135C5.56855 5.43129 5.39998 5.02432 5.39998 4.59998C5.39998 4.17563 5.56855 3.76866 5.8686 3.4686C6.16866 3.16855 6.57563 2.99998 6.99998 2.99998C7.42432 2.99998 7.83129 3.16855 8.13135 3.4686C8.4314 3.76866 8.59998 4.17563 8.59998 4.59998ZM6.99998 7.79998C6.23406 7.79982 5.4842 8.01957 4.83951 8.4331C4.19482 8.84663 3.68241 9.43656 3.36318 10.1328C3.81332 10.6565 4.37139 11.0766 4.99913 11.3644C5.62687 11.6521 6.30942 11.8007 6.99998 11.8C7.69053 11.8007 8.37308 11.6521 9.00082 11.3644C9.62856 11.0766 10.1866 10.6565 10.6368 10.1328C10.3175 9.43656 9.80513 8.84663 9.16044 8.4331C8.51575 8.01957 7.76589 7.79982 6.99998 7.79998Z"
    fill="white"
  />
</svg>
