<svg xmlns="http://www.w3.org/2000/svg" width="16px" height="16px" viewBox="0 0 16 16" fill="none">
  <path
    fill-rule="evenodd"
    clip-rule="evenodd"
    d="M3.20002 1.59998C3.4122 1.59998 3.61568 1.68426 3.76571 1.83429C3.91574 1.98432 4.00002 2.1878 4.00002 2.39998V4.08078C4.66566 3.40179 5.49317 2.90342 6.40462 2.6326C7.31607 2.36178 8.28146 2.32743 9.20985 2.53278C10.1382 2.73813 10.9991 3.17642 11.7113 3.80637C12.4235 4.43633 12.9636 5.23721 13.2808 6.13357C13.3193 6.23338 13.3374 6.33989 13.334 6.4468C13.3306 6.55372 13.3058 6.65886 13.261 6.75602C13.2163 6.85318 13.1525 6.94038 13.0735 7.01246C12.9944 7.08454 12.9018 7.14004 12.8009 7.17568C12.7 7.21131 12.5931 7.22636 12.4863 7.21993C12.3795 7.21349 12.2751 7.18571 12.1793 7.13823C12.0834 7.09075 11.9981 7.02452 11.9282 6.94347C11.8584 6.86243 11.8056 6.7682 11.7728 6.66638C11.5313 5.98383 11.1092 5.37959 10.5514 4.91804C9.99355 4.45649 9.32096 4.15492 8.60527 4.04548C7.88959 3.93604 7.15761 4.02282 6.48735 4.29657C5.81709 4.57032 5.23366 5.02079 4.79922 5.59998H7.20002C7.4122 5.59998 7.61568 5.68426 7.76571 5.83429C7.91574 5.98432 8.00002 6.1878 8.00002 6.39998C8.00002 6.61215 7.91574 6.81563 7.76571 6.96566C7.61568 7.11569 7.4122 7.19998 7.20002 7.19998H3.20002C2.98785 7.19998 2.78437 7.11569 2.63434 6.96566C2.48431 6.81563 2.40002 6.61215 2.40002 6.39998V2.39998C2.40002 2.1878 2.48431 1.98432 2.63434 1.83429C2.78437 1.68426 2.98785 1.59998 3.20002 1.59998ZM3.20642 8.84558C3.30549 8.81058 3.41048 8.79545 3.5154 8.80104C3.62032 8.80662 3.72311 8.83282 3.8179 8.87814C3.91269 8.92346 3.99763 8.987 4.06786 9.06514C4.1381 9.14329 4.19225 9.2345 4.22722 9.33357C4.46872 10.0161 4.89086 10.6204 5.44868 11.0819C6.0065 11.5435 6.67909 11.845 7.39477 11.9545C8.11046 12.0639 8.84244 11.9771 9.5127 11.7034C10.183 11.4296 10.7664 10.9792 11.2008 10.4H8.80002C8.58785 10.4 8.38437 10.3157 8.23434 10.1657C8.08431 10.0156 8.00002 9.81215 8.00002 9.59998C8.00002 9.3878 8.08431 9.18432 8.23434 9.03429C8.38437 8.88426 8.58785 8.79998 8.80002 8.79998H12.8C13.0122 8.79998 13.2157 8.88426 13.3657 9.03429C13.5157 9.18432 13.6 9.3878 13.6 9.59998V13.6C13.6 13.8121 13.5157 14.0156 13.3657 14.1657C13.2157 14.3157 13.0122 14.4 12.8 14.4C12.5879 14.4 12.3844 14.3157 12.2343 14.1657C12.0843 14.0156 12 13.8121 12 13.6V11.9192C11.3344 12.5982 10.5069 13.0965 9.59543 13.3673C8.68398 13.6382 7.71859 13.6725 6.7902 13.4672C5.86181 13.2618 5.00096 12.8235 4.28875 12.1936C3.57654 11.5636 3.03641 10.7627 2.71922 9.86637C2.68423 9.76731 2.6691 9.66232 2.67469 9.5574C2.68027 9.45248 2.70647 9.34969 2.75179 9.2549C2.7971 9.1601 2.86065 9.07517 2.93879 9.00494C3.01694 8.9347 3.10815 8.88055 3.20722 8.84558H3.20642Z"
    fill="currentColor"
  />
</svg>
