<svg width="16" height="16" viewBox="0 0 16 16" fill="none" xmlns="http://www.w3.org/2000/svg">
<path d="M6.4001 1.6001C6.18792 1.6001 5.98444 1.68438 5.83441 1.83441C5.68438 1.98444 5.6001 2.18792 5.6001 2.4001C5.6001 2.61227 5.68438 2.81575 5.83441 2.96578C5.98444 3.11581 6.18792 3.2001 6.4001 3.2001H8.0001C8.21227 3.2001 8.41575 3.11581 8.56578 2.96578C8.71581 2.81575 8.8001 2.61227 8.8001 2.4001C8.8001 2.18792 8.71581 1.98444 8.56578 1.83441C8.41575 1.68438 8.21227 1.6001 8.0001 1.6001H6.4001Z" fill="#212121"/>
<path d="M2.3999 3.9999C2.3999 3.57556 2.56847 3.16859 2.86853 2.86853C3.16859 2.56847 3.57556 2.3999 3.9999 2.3999C3.9999 3.03642 4.25276 3.64687 4.70285 4.09696C5.15293 4.54705 5.76338 4.7999 6.3999 4.7999H7.9999C8.63642 4.7999 9.24687 4.54705 9.69696 4.09696C10.147 3.64687 10.3999 3.03642 10.3999 2.3999C10.8242 2.3999 11.2312 2.56847 11.5313 2.86853C11.8313 3.16859 11.9999 3.57556 11.9999 3.9999V8.7999H8.3311L9.3655 7.7655C9.51123 7.61462 9.59186 7.41254 9.59004 7.20278C9.58822 6.99302 9.50408 6.79237 9.35576 6.64405C9.20743 6.49572 9.00678 6.41159 8.79702 6.40976C8.58727 6.40794 8.38518 6.48858 8.2343 6.6343L5.8343 9.0343C5.68433 9.18432 5.60007 9.38777 5.60007 9.5999C5.60007 9.81203 5.68433 10.0155 5.8343 10.1655L8.2343 12.5655C8.38518 12.7112 8.58727 12.7919 8.79702 12.79C9.00678 12.7882 9.20743 12.7041 9.35576 12.5558C9.50408 12.4074 9.58822 12.2068 9.59004 11.997C9.59186 11.7873 9.51123 11.5852 9.3655 11.4343L8.3311 10.3999H11.9999V12.7999C11.9999 13.2242 11.8313 13.6312 11.5313 13.9313C11.2312 14.2313 10.8242 14.3999 10.3999 14.3999H3.9999C3.57556 14.3999 3.16859 14.2313 2.86853 13.9313C2.56847 13.6312 2.3999 13.2242 2.3999 12.7999V3.9999ZM11.9999 8.7999H13.5999C13.8121 8.7999 14.0156 8.88419 14.1656 9.03422C14.3156 9.18425 14.3999 9.38773 14.3999 9.5999C14.3999 9.81208 14.3156 10.0156 14.1656 10.1656C14.0156 10.3156 13.8121 10.3999 13.5999 10.3999H11.9999V8.7999Z" fill="#212121"/>
</svg>
