<svg width="16" height="16" viewBox="0 0 16 16" fill="none" xmlns="http://www.w3.org/2000/svg">
  <g clip-path="url(#clip0_382_2317)">
    <path
      d="M8 16C12.4183 16 16 12.4183 16 8C16 3.58172 12.4183 0 8 0C3.58172 0 0 3.58172 0 8C0 12.4183 3.58172 16 8 16Z"
      fill="url(#paint0_linear_382_2317)"
    />
    <path
      d="M8 1.90625C4.64 1.90625 1.90625 4.64 1.90625 8C1.90625 11.36 4.64 14.0938 8 14.0938C11.36 14.0938 14.0938 11.36 14.0938 8C14.0938 4.64 11.36 1.90625 8 1.90625ZM11.7408 9.63559C11.8269 9.78072 11.8287 9.96059 11.7454 10.1071C11.6621 10.2531 11.5065 10.3438 11.338 10.3438H9.37969L8.40281 11.9894C8.31859 12.1318 8.16572 12.2188 8 12.2188C7.83428 12.2188 7.68141 12.1318 7.59716 11.9894L6.62031 10.3438H4.662C4.49353 10.3438 4.33791 10.2531 4.25459 10.1071C4.17128 9.96059 4.17313 9.78072 4.25916 9.63559L5.23053 7.99909L4.25916 6.36441C4.17309 6.21928 4.17125 6.03941 4.25459 5.89337C4.33791 5.74687 4.49353 5.65625 4.662 5.65625H6.62031L7.59719 4.01059C7.76566 3.72588 8.23441 3.72588 8.40284 4.01059L9.37969 5.65625H11.338C11.5065 5.65625 11.6621 5.74687 11.7454 5.89337C11.8287 6.03941 11.8269 6.21931 11.7408 6.36441L10.7695 7.99909L11.7408 9.63559Z"
      fill="url(#paint1_linear_382_2317)"
    />
  </g>
  <defs>
    <linearGradient id="paint0_linear_382_2317" x1="8" y1="16" x2="8" y2="0" gradientUnits="userSpaceOnUse">
      <stop stop-color="#FF8F00" />
      <stop offset="1" stop-color="#FFD54F" />
    </linearGradient>
    <linearGradient id="paint1_linear_382_2317" x1="8" y1="14.0938" x2="8" y2="1.90625" gradientUnits="userSpaceOnUse">
      <stop stop-color="#FFCF92" />
      <stop offset="1" stop-color="#FFF9E8" />
    </linearGradient>
    <clipPath id="clip0_382_2317">
      <rect width="16" height="16" fill="white" />
    </clipPath>
  </defs>
</svg>
