<svg width="14" height="14" viewBox="0 0 14 14" fill="none" xmlns="http://www.w3.org/2000/svg">
  <path
    fill-rule="evenodd"
    clip-rule="evenodd"
    fill="currentColor"
    d="M8.19141 1.53598C7.88741 0.287976 6.11141 0.287976 5.80741 1.53598C5.76202 1.72351 5.673 1.89768 5.54759 2.0443C5.42217 2.19093 5.26391 2.30588 5.08569 2.37979C4.90746 2.4537 4.71429 2.48449 4.52192 2.46965C4.32954 2.4548 4.14339 2.39475 3.97861 2.29438C2.88101 1.62558 1.62501 2.88158 2.29381 3.97918C2.72581 4.68798 2.34261 5.61278 1.53621 5.80878C0.287409 6.11198 0.287409 7.88878 1.53621 8.19118C1.72379 8.23662 1.89799 8.32572 2.04462 8.45123C2.19125 8.57674 2.30616 8.73511 2.38 8.91343C2.45384 9.09176 2.48452 9.285 2.46954 9.47743C2.45457 9.66985 2.39435 9.85602 2.29381 10.0208C1.62501 11.1184 2.88101 12.3744 3.97861 11.7056C4.14336 11.605 4.32953 11.5448 4.52196 11.5298C4.71438 11.5149 4.90763 11.5455 5.08595 11.6194C5.26428 11.6932 5.42264 11.8081 5.54815 11.9548C5.67366 12.1014 5.76277 12.2756 5.80821 12.4632C6.11141 13.712 7.88821 13.712 8.19061 12.4632C8.23621 12.2757 8.3254 12.1016 8.45093 11.9551C8.57647 11.8086 8.73481 11.6937 8.91308 11.6199C9.09135 11.5461 9.28452 11.5154 9.4769 11.5303C9.66927 11.5451 9.85542 11.6052 10.0202 11.7056C11.1178 12.3744 12.3738 11.1184 11.705 10.0208C11.6046 9.85598 11.5446 9.66984 11.5297 9.47746C11.5148 9.28509 11.5455 9.09192 11.6193 8.91365C11.6932 8.73537 11.808 8.57704 11.9545 8.4515C12.101 8.32596 12.2751 8.23677 12.4626 8.19118C13.7114 7.88798 13.7114 6.11118 12.4626 5.80878C12.275 5.76333 12.1008 5.67423 11.9542 5.54872C11.8076 5.42321 11.6927 5.26484 11.6188 5.08652C11.545 4.90819 11.5143 4.71495 11.5293 4.52252C11.5443 4.3301 11.6045 4.14393 11.705 3.97918C12.3738 2.88158 11.1178 1.62558 10.0202 2.29438C9.85546 2.39492 9.66929 2.45513 9.47686 2.47011C9.28444 2.48509 9.09119 2.45441 8.91287 2.38057C8.73454 2.30673 8.57618 2.19181 8.45067 2.04518C8.32516 1.89856 8.23605 1.72436 8.19061 1.53678L8.19141 1.53598ZM6.99941 9.39998C7.63593 9.39998 8.24638 9.14712 8.69647 8.69703C9.14655 8.24694 9.39941 7.6365 9.39941 6.99998C9.39941 6.36346 9.14655 5.75301 8.69647 5.30292C8.24638 4.85283 7.63593 4.59998 6.99941 4.59998C6.36289 4.59998 5.75244 4.85283 5.30235 5.30292C4.85227 5.75301 4.59941 6.36346 4.59941 6.99998C4.59941 7.6365 4.85227 8.24694 5.30235 8.69703C5.75244 9.14712 6.36289 9.39998 6.99941 9.39998Z"
  />
</svg>
