<svg width="16" height="16" viewBox="0 0 16 16" fill="none" xmlns="http://www.w3.org/2000/svg">
    <g id="globe-alt">
        <path id="Vector" fill-rule="evenodd" clip-rule="evenodd"
            d="M3.2664 7.20001H4.8232C4.8944 5.96321 5.1296 4.82401 5.4928 3.90561C4.908 4.26394 4.40673 4.74336 4.0227 5.31161C3.63867 5.87986 3.38079 6.52376 3.2664 7.20001ZM8 1.60001C6.30261 1.60001 4.67475 2.27429 3.47452 3.47452C2.27428 4.67476 1.6 6.30262 1.6 8.00001C1.6 9.69739 2.27428 11.3253 3.47452 12.5255C4.67475 13.7257 6.30261 14.4 8 14.4C9.69738 14.4 11.3252 13.7257 12.5255 12.5255C13.7257 11.3253 14.4 9.69739 14.4 8.00001C14.4 6.30262 13.7257 4.67476 12.5255 3.47452C11.3252 2.27429 9.69738 1.60001 8 1.60001ZM8 3.20001C7.9392 3.20001 7.8144 3.22561 7.628 3.40961C7.4376 3.59681 7.2304 3.90801 7.0384 4.35521C6.7272 5.08081 6.5 6.06881 6.4256 7.20001H9.5744C9.5 6.06881 9.2728 5.08081 8.9616 4.35521C8.7696 3.90721 8.5616 3.59681 8.372 3.40961C8.1856 3.22561 8.0608 3.20001 8 3.20001ZM11.1768 7.20001C11.1056 5.96321 10.8704 4.82401 10.5072 3.90561C11.092 4.26394 11.5933 4.74336 11.9773 5.31161C12.3613 5.87986 12.6192 6.52376 12.7336 7.20001H11.1768ZM9.5744 8.80001H6.4256C6.5 9.93121 6.7272 10.9192 7.0384 11.6448C7.2304 12.0928 7.4384 12.4032 7.628 12.5904C7.8144 12.7744 7.9392 12.8 8 12.8C8.0608 12.8 8.1856 12.7744 8.372 12.5904C8.5624 12.4032 8.7704 12.092 8.9616 11.6448C9.2728 10.9192 9.5 9.93121 9.5744 8.80001ZM10.5072 12.0944C10.8704 11.1768 11.1056 10.0368 11.1768 8.80001H12.7336C12.6192 9.47625 12.3613 10.1202 11.9773 10.6884C11.5933 11.2567 11.092 11.7361 10.5072 12.0944ZM5.4928 12.0944C5.1296 11.176 4.8944 10.0368 4.824 8.80001H3.2664C3.38079 9.47625 3.63867 10.1202 4.0227 10.6884C4.40673 11.2567 4.908 11.7361 5.4928 12.0944Z"
            fill="#212121" />
    </g>
</svg>