<svg width="12" height="12" viewBox="0 0 12 12" fill="none" xmlns="http://www.w3.org/2000/svg">
<path fill-rule="evenodd" clip-rule="evenodd" d="M2.00039 0.400024C1.57604 0.400024 1.16908 0.568595 0.86902 0.868654C0.568962 1.16871 0.400391 1.57568 0.400391 2.00002V10C0.400391 10.4244 0.568962 10.8313 0.86902 11.1314C1.16908 11.4315 1.57604 11.6 2.00039 11.6H10.0004C10.4247 11.6 10.8317 11.4315 11.1318 11.1314C11.4318 10.8313 11.6004 10.4244 11.6004 10V2.00002C11.6004 1.57568 11.4318 1.16871 11.1318 0.868654C10.8317 0.568595 10.4247 0.400024 10.0004 0.400024H2.00039ZM2.00039 2.00002H10.0004V7.60003H8.40039L7.60039 9.20003H4.40039L3.60039 7.60003H2.00039V2.00002Z" fill="#90A4AE"/>
</svg>
