<svg width="30" height="32" viewBox="0 0 30 32" fill="none" xmlns="http://www.w3.org/2000/svg">
  <path d="M25.0001 26L28.3334 24.3333V20.1667" fill="#90A4AE" />
  <path
    d="M18.3334 12.6667L15.0001 14.3333M15.0001 14.3333L11.6667 12.6667M15.0001 14.3333V18.5M28.3334 7.66667L25.0001 9.33333M28.3334 7.66667L25.0001 6M28.3334 7.66667V11.8333M18.3334 2.66667L15.0001 1L11.6667 2.66667M1.66675 7.66667L5.00008 6M1.66675 7.66667L5.00008 9.33333M1.66675 7.66667V11.8333M15.0001 31L11.6667 29.3333M15.0001 31L18.3334 29.3333M15.0001 31V26.8333M5.00008 26L1.66675 24.3333V20.1667M25.0001 26L28.3334 24.3333V20.1667"
    stroke="#212121"
    stroke-width="2"
    stroke-linecap="round"
    stroke-linejoin="round"
  />
</svg>
