<svg width="14" height="16" viewBox="0 0 14 16" fill="none" xmlns="http://www.w3.org/2000/svg">
<path fill-rule="evenodd" clip-rule="evenodd" d="M6.60318 0.905635C6.72403 0.836603 6.8608 0.800293 6.99998 0.800293C7.13916 0.800293 7.27593 0.836603 7.39678 0.905635L8.79678 1.70564C8.8906 1.75634 8.97334 1.8253 9.04013 1.90845C9.10692 1.9916 9.15641 2.08726 9.18568 2.18982C9.21496 2.29237 9.22344 2.39974 9.21061 2.50562C9.19779 2.6115 9.16392 2.71374 9.11101 2.80634C9.0581 2.89894 8.9872 2.98002 8.9025 3.04482C8.81779 3.10962 8.72098 3.15683 8.61776 3.18368C8.51454 3.21052 8.407 3.21645 8.30146 3.20112C8.19591 3.1858 8.0945 3.14953 8.00318 3.09444L6.99998 2.52164L5.99678 3.09444C5.90546 3.14953 5.80404 3.1858 5.6985 3.20112C5.59296 3.21645 5.48541 3.21052 5.3822 3.18368C5.27898 3.15683 5.18217 3.10962 5.09746 3.04482C5.01276 2.98002 4.94186 2.89894 4.88895 2.80634C4.83603 2.71374 4.80217 2.6115 4.78935 2.50562C4.77652 2.39974 4.785 2.29237 4.81428 2.18982C4.84355 2.08726 4.89304 1.9916 4.95983 1.90845C5.02662 1.8253 5.10935 1.75634 5.20318 1.70564L6.60318 0.905635ZM3.49438 3.60324C3.59956 3.78742 3.62729 4.00582 3.57148 4.21045C3.51568 4.41507 3.3809 4.58915 3.19678 4.69444L3.01278 4.80004L3.19678 4.90564C3.2906 4.95634 3.37334 5.0253 3.44013 5.10845C3.50692 5.1916 3.55641 5.28726 3.58568 5.38982C3.61496 5.49237 3.62344 5.59974 3.61061 5.70562C3.59779 5.8115 3.56392 5.91374 3.51101 6.00634C3.4581 6.09894 3.3872 6.18002 3.3025 6.24482C3.21779 6.30962 3.12098 6.35683 3.01776 6.38368C2.91455 6.41052 2.807 6.41645 2.70146 6.40113C2.59591 6.3858 2.4945 6.34953 2.40318 6.29444L2.19998 6.17844V6.40004C2.19998 6.61221 2.11569 6.81569 1.96566 6.96572C1.81564 7.11575 1.61215 7.20004 1.39998 7.20004C1.18781 7.20004 0.984323 7.11575 0.834294 6.96572C0.684265 6.81569 0.599979 6.61221 0.599979 6.40004V4.80004C0.599532 4.65632 0.63796 4.51517 0.711194 4.39151C0.784428 4.26786 0.889741 4.16632 1.01598 4.09764L2.40318 3.30564C2.58736 3.20046 2.80577 3.17272 3.01039 3.22853C3.21501 3.28434 3.3891 3.41911 3.49438 3.60324ZM10.5056 3.60324C10.6109 3.41911 10.7849 3.28434 10.9896 3.22853C11.1942 3.17272 11.4126 3.20046 11.5968 3.30564L12.9832 4.09764C13.1092 4.16661 13.2144 4.2682 13.2877 4.39177C13.3611 4.51534 13.3998 4.65635 13.4 4.80004V6.40004C13.4 6.61221 13.3157 6.81569 13.1657 6.96572C13.0156 7.11575 12.8122 7.20004 12.6 7.20004C12.3878 7.20004 12.1843 7.11575 12.0343 6.96572C11.8843 6.81569 11.8 6.61221 11.8 6.40004V6.17844L11.5968 6.29444C11.5055 6.34953 11.404 6.3858 11.2985 6.40113C11.193 6.41645 11.0854 6.41052 10.9822 6.38368C10.879 6.35683 10.7822 6.30962 10.6975 6.24482C10.6128 6.18002 10.5419 6.09894 10.4889 6.00634C10.436 5.91374 10.4022 5.8115 10.3893 5.70562C10.3765 5.59974 10.385 5.49237 10.4143 5.38982C10.4436 5.28726 10.493 5.1916 10.5598 5.10845C10.6266 5.0253 10.7094 4.95634 10.8032 4.90564L10.9872 4.80004L10.8032 4.69444C10.6191 4.58915 10.4843 4.41507 10.4285 4.21045C10.3727 4.00582 10.4004 3.78742 10.5056 3.60324ZM4.90558 6.80324C5.01086 6.61911 5.18495 6.48434 5.38957 6.42853C5.59419 6.37272 5.8126 6.40046 5.99678 6.50564L6.99998 7.07843L8.00318 6.50564C8.0945 6.45054 8.19591 6.41427 8.30146 6.39895C8.407 6.38362 8.51454 6.38955 8.61776 6.41639C8.72098 6.44324 8.81779 6.49045 8.9025 6.55525C8.9872 6.62005 9.0581 6.70113 9.11101 6.79373C9.16392 6.88633 9.19779 6.98857 9.21061 7.09445C9.22344 7.20033 9.21496 7.3077 9.18568 7.41025C9.15641 7.51281 9.10692 7.60847 9.04013 7.69162C8.97334 7.77477 8.8906 7.84373 8.79678 7.89444L7.79998 8.46404V9.60004C7.79998 9.81221 7.71569 10.0157 7.56566 10.1657C7.41564 10.3157 7.21215 10.4 6.99998 10.4C6.78781 10.4 6.58432 10.3157 6.43429 10.1657C6.28427 10.0157 6.19998 9.81221 6.19998 9.60004V8.46404L5.20318 7.89444C5.01906 7.78916 4.88428 7.61507 4.82847 7.41045C4.77267 7.20582 4.8004 6.98741 4.90558 6.80324ZM1.39998 8.80003C1.61215 8.80003 1.81564 8.88432 1.96566 9.03435C2.11569 9.18438 2.19998 9.38786 2.19998 9.60004V10.736L3.19678 11.3056C3.2906 11.3563 3.37334 11.4253 3.44013 11.5084C3.50692 11.5916 3.55641 11.6873 3.58568 11.7898C3.61496 11.8924 3.62344 11.9997 3.61061 12.1056C3.59779 12.2115 3.56392 12.3137 3.51101 12.4063C3.4581 12.4989 3.3872 12.58 3.3025 12.6448C3.21779 12.7096 3.12098 12.7568 3.01776 12.7837C2.91455 12.8105 2.807 12.8165 2.70146 12.8011C2.59591 12.7858 2.4945 12.7495 2.40318 12.6944L1.00318 11.8944C0.880736 11.8245 0.778955 11.7234 0.708148 11.6015C0.637341 11.4795 0.600025 11.341 0.599979 11.2V9.60004C0.599979 9.38786 0.684265 9.18438 0.834294 9.03435C0.984323 8.88432 1.18781 8.80003 1.39998 8.80003ZM12.6 8.80003C12.8122 8.80003 13.0156 8.88432 13.1657 9.03435C13.3157 9.18438 13.4 9.38786 13.4 9.60004V11.2C13.3999 11.341 13.3626 11.4795 13.2918 11.6015C13.221 11.7234 13.1192 11.8245 12.9968 11.8944L11.5968 12.6944C11.5055 12.7495 11.404 12.7858 11.2985 12.8011C11.193 12.8165 11.0854 12.8105 10.9822 12.7837C10.879 12.7568 10.7822 12.7096 10.6975 12.6448C10.6128 12.58 10.5419 12.4989 10.4889 12.4063C10.436 12.3137 10.4022 12.2115 10.3893 12.1056C10.3765 11.9997 10.385 11.8924 10.4143 11.7898C10.4436 11.6873 10.493 11.5916 10.5598 11.5084C10.6266 11.4253 10.7094 11.3563 10.8032 11.3056L11.8 10.736V9.60004C11.8 9.38786 11.8843 9.18438 12.0343 9.03435C12.1843 8.88432 12.3878 8.80003 12.6 8.80003ZM4.90558 13.2032C5.01086 13.0191 5.18495 12.8843 5.38957 12.8285C5.59419 12.7727 5.8126 12.8005 5.99678 12.9056L6.19998 13.0216V12.8C6.19998 12.5879 6.28427 12.3844 6.43429 12.2344C6.58432 12.0843 6.78781 12 6.99998 12C7.21215 12 7.41564 12.0843 7.56566 12.2344C7.71569 12.3844 7.79998 12.5879 7.79998 12.8V13.0216L8.00318 12.9056C8.0945 12.8505 8.19591 12.8143 8.30146 12.7989C8.407 12.7836 8.51454 12.7896 8.61776 12.8164C8.72098 12.8432 8.81779 12.8904 8.9025 12.9552C8.9872 13.02 9.0581 13.1011 9.11101 13.1937C9.16392 13.2863 9.19779 13.3886 9.21061 13.4945C9.22344 13.6003 9.21496 13.7077 9.18568 13.8103C9.15641 13.9128 9.10692 14.0085 9.04013 14.0916C8.97334 14.1748 8.8906 14.2437 8.79678 14.2944L7.40878 15.088C7.28524 15.162 7.14396 15.201 6.99998 15.201C6.856 15.201 6.71472 15.162 6.59118 15.088L5.20318 14.2944C5.01906 14.1892 4.88428 14.0151 4.82847 13.8104C4.77267 13.6058 4.8004 13.3874 4.90558 13.2032Z" fill="#90A4AE"/>
</svg>
