<svg width="14" height="16" viewBox="0 0 14 16" fill="none" xmlns="http://www.w3.org/2000/svg">
<path fill-rule="evenodd" clip-rule="evenodd" d="M6.6033 0.905604C6.72415 0.836572 6.86092 0.800262 7.0001 0.800262C7.13928 0.800262 7.27605 0.836572 7.3969 0.905604L8.7969 1.7056C8.89073 1.75631 8.97347 1.82527 9.04025 1.90842C9.10704 1.99157 9.15653 2.08723 9.18581 2.18979C9.21508 2.29234 9.22356 2.39971 9.21073 2.50559C9.19791 2.61147 9.16405 2.71371 9.11113 2.80631C9.05822 2.89891 8.98733 2.97999 8.90262 3.04479C8.81791 3.10959 8.7211 3.1568 8.61788 3.18365C8.51467 3.21049 8.40712 3.21642 8.30158 3.20109C8.19604 3.18577 8.09462 3.14949 8.0033 3.0944L7.0001 2.5216L5.9969 3.0944C5.90558 3.14949 5.80417 3.18577 5.69862 3.20109C5.59308 3.21642 5.48554 3.21049 5.38232 3.18365C5.2791 3.1568 5.18229 3.10959 5.09759 3.04479C5.01288 2.97999 4.94198 2.89891 4.88907 2.80631C4.83616 2.71371 4.80229 2.61147 4.78947 2.50559C4.77664 2.39971 4.78512 2.29234 4.8144 2.18979C4.84368 2.08723 4.89316 1.99157 4.95995 1.90842C5.02674 1.82527 5.10948 1.75631 5.2033 1.7056L6.6033 0.905604ZM3.4945 3.6032C3.59968 3.78738 3.62741 4.00579 3.57161 4.21042C3.5158 4.41504 3.38102 4.58912 3.1969 4.6944L3.0129 4.8L3.1969 4.9056C3.29073 4.95631 3.37347 5.02527 3.44025 5.10842C3.50704 5.19157 3.55653 5.28723 3.5858 5.38979C3.61508 5.49234 3.62356 5.59971 3.61073 5.70559C3.59791 5.81147 3.56405 5.91371 3.51113 6.00631C3.45822 6.09891 3.38732 6.17999 3.30262 6.24479C3.21791 6.30959 3.1211 6.3568 3.01788 6.38365C2.91467 6.41049 2.80712 6.41642 2.70158 6.40109C2.59604 6.38577 2.49462 6.34949 2.4033 6.2944L2.2001 6.1784V6.4C2.2001 6.61218 2.11582 6.81566 1.96579 6.96569C1.81576 7.11572 1.61227 7.2 1.4001 7.2C1.18793 7.2 0.984445 7.11572 0.834416 6.96569C0.684387 6.81566 0.600102 6.61218 0.600102 6.4V4.8C0.599654 4.65629 0.638082 4.51514 0.711316 4.39148C0.78455 4.26783 0.889863 4.16629 1.0161 4.0976L2.4033 3.3056C2.58748 3.20043 2.80589 3.17269 3.01051 3.2285C3.21513 3.28431 3.38922 3.41908 3.4945 3.6032ZM10.5057 3.6032C10.611 3.41908 10.7851 3.28431 10.9897 3.2285C11.1943 3.17269 11.4127 3.20043 11.5969 3.3056L12.9833 4.0976C13.1094 4.16658 13.2145 4.26817 13.2879 4.39174C13.3612 4.51531 13.4 4.65632 13.4001 4.8V6.4C13.4001 6.61218 13.3158 6.81566 13.1658 6.96569C13.0158 7.11572 12.8123 7.2 12.6001 7.2C12.3879 7.2 12.1844 7.11572 12.0344 6.96569C11.8844 6.81566 11.8001 6.61218 11.8001 6.4V6.1784L11.5969 6.2944C11.5056 6.34949 11.4042 6.38577 11.2986 6.40109C11.1931 6.41642 11.0855 6.41049 10.9823 6.38365C10.8791 6.3568 10.7823 6.30959 10.6976 6.24479C10.6129 6.17999 10.542 6.09891 10.4891 6.00631C10.4362 5.91371 10.4023 5.81147 10.3895 5.70559C10.3766 5.59971 10.3851 5.49234 10.4144 5.38979C10.4437 5.28723 10.4932 5.19157 10.56 5.10842C10.6267 5.02527 10.7095 4.95631 10.8033 4.9056L10.9873 4.8L10.8033 4.6944C10.6192 4.58912 10.4844 4.41504 10.4286 4.21042C10.3728 4.00579 10.4005 3.78738 10.5057 3.6032ZM4.9057 6.8032C5.01098 6.61908 5.18507 6.4843 5.38969 6.4285C5.59431 6.37269 5.81272 6.40043 5.9969 6.5056L7.0001 7.0784L8.0033 6.5056C8.09462 6.45051 8.19604 6.41424 8.30158 6.39891C8.40712 6.38359 8.51467 6.38952 8.61788 6.41636C8.7211 6.44321 8.81791 6.49042 8.90262 6.55522C8.98733 6.62002 9.05822 6.7011 9.11113 6.7937C9.16405 6.8863 9.19791 6.98854 9.21073 7.09442C9.22356 7.2003 9.21508 7.30767 9.18581 7.41022C9.15653 7.51278 9.10704 7.60844 9.04025 7.69159C8.97347 7.77474 8.89073 7.8437 8.7969 7.8944L7.8001 8.464V9.60001C7.8001 9.81218 7.71582 10.0157 7.56579 10.1657C7.41576 10.3157 7.21227 10.4 7.0001 10.4C6.78793 10.4 6.58445 10.3157 6.43442 10.1657C6.28439 10.0157 6.2001 9.81218 6.2001 9.60001V8.464L5.2033 7.8944C5.01918 7.78912 4.8844 7.61504 4.8286 7.41042C4.77279 7.20579 4.80052 6.98738 4.9057 6.8032ZM1.4001 8.8C1.61227 8.8 1.81576 8.88429 1.96579 9.03432C2.11582 9.18435 2.2001 9.38783 2.2001 9.60001V10.736L3.1969 11.3056C3.29073 11.3563 3.37347 11.4253 3.44025 11.5084C3.50704 11.5916 3.55653 11.6872 3.5858 11.7898C3.61508 11.8923 3.62356 11.9997 3.61073 12.1056C3.59791 12.2115 3.56405 12.3137 3.51113 12.4063C3.45822 12.4989 3.38732 12.58 3.30262 12.6448C3.21791 12.7096 3.1211 12.7568 3.01788 12.7836C2.91467 12.8105 2.80712 12.8164 2.70158 12.8011C2.59604 12.7858 2.49462 12.7495 2.4033 12.6944L1.0033 11.8944C0.880858 11.8245 0.779077 11.7234 0.70827 11.6015C0.637464 11.4795 0.600147 11.341 0.600102 11.2V9.60001C0.600102 9.38783 0.684387 9.18435 0.834416 9.03432C0.984445 8.88429 1.18793 8.8 1.4001 8.8ZM12.6001 8.8C12.8123 8.8 13.0158 8.88429 13.1658 9.03432C13.3158 9.18435 13.4001 9.38783 13.4001 9.60001V11.2C13.4001 11.341 13.3627 11.4795 13.2919 11.6015C13.2211 11.7234 13.1193 11.8245 12.9969 11.8944L11.5969 12.6944C11.5056 12.7495 11.4042 12.7858 11.2986 12.8011C11.1931 12.8164 11.0855 12.8105 10.9823 12.7836C10.8791 12.7568 10.7823 12.7096 10.6976 12.6448C10.6129 12.58 10.542 12.4989 10.4891 12.4063C10.4362 12.3137 10.4023 12.2115 10.3895 12.1056C10.3766 11.9997 10.3851 11.8923 10.4144 11.7898C10.4437 11.6872 10.4932 11.5916 10.56 11.5084C10.6267 11.4253 10.7095 11.3563 10.8033 11.3056L11.8001 10.736V9.60001C11.8001 9.38783 11.8844 9.18435 12.0344 9.03432C12.1844 8.88429 12.3879 8.8 12.6001 8.8ZM4.9057 13.2032C5.01098 13.0191 5.18507 12.8843 5.38969 12.8285C5.59431 12.7727 5.81272 12.8004 5.9969 12.9056L6.2001 13.0216V12.8C6.2001 12.5878 6.28439 12.3843 6.43442 12.2343C6.58445 12.0843 6.78793 12 7.0001 12C7.21227 12 7.41576 12.0843 7.56579 12.2343C7.71582 12.3843 7.8001 12.5878 7.8001 12.8V13.0216L8.0033 12.9056C8.09462 12.8505 8.19604 12.8142 8.30158 12.7989C8.40712 12.7836 8.51467 12.7895 8.61788 12.8164C8.7211 12.8432 8.81791 12.8904 8.90262 12.9552C8.98733 13.02 9.05822 13.1011 9.11113 13.1937C9.16405 13.2863 9.19791 13.3885 9.21073 13.4944C9.22356 13.6003 9.21508 13.7077 9.18581 13.8102C9.15653 13.9128 9.10704 14.0084 9.04025 14.0916C8.97347 14.1747 8.89073 14.2437 8.7969 14.2944L7.4089 15.088C7.28536 15.1619 7.14408 15.201 7.0001 15.201C6.85612 15.201 6.71484 15.1619 6.5913 15.088L5.2033 14.2944C5.01918 14.1891 4.8844 14.015 4.8286 13.8104C4.77279 13.6058 4.80052 13.3874 4.9057 13.2032Z" fill="#1E99FF"/>
</svg>
