<svg width="12" height="12" viewBox="0 0 12 12" fill="none" xmlns="http://www.w3.org/2000/svg">
  <path
    d="M2.00002 0.400024C1.57568 0.400024 1.16871 0.568595 0.868654 0.868654C0.568595 1.16871 0.400024 1.57568 0.400024 2.00002V3.60002C0.400024 4.02437 0.568595 4.43134 0.868654 4.7314C1.16871 5.03145 1.57568 5.20002 2.00002 5.20002H3.60002C4.02437 5.20002 4.43134 5.03145 4.7314 4.7314C5.03145 4.43134 5.20002 4.02437 5.20002 3.60002V2.00002C5.20002 1.57568 5.03145 1.16871 4.7314 0.868654C4.43134 0.568595 4.02437 0.400024 3.60002 0.400024H2.00002ZM2.00002 6.80002C1.57568 6.80002 1.16871 6.9686 0.868654 7.26865C0.568595 7.56871 0.400024 7.97568 0.400024 8.40003V10C0.400024 10.4244 0.568595 10.8313 0.868654 11.1314C1.16871 11.4315 1.57568 11.6 2.00002 11.6H3.60002C4.02437 11.6 4.43134 11.4315 4.7314 11.1314C5.03145 10.8313 5.20002 10.4244 5.20002 10V8.40003C5.20002 7.97568 5.03145 7.56871 4.7314 7.26865C4.43134 6.9686 4.02437 6.80002 3.60002 6.80002H2.00002ZM6.80002 2.00002C6.80002 1.57568 6.9686 1.16871 7.26865 0.868654C7.56871 0.568595 7.97568 0.400024 8.40003 0.400024H10C10.4244 0.400024 10.8313 0.568595 11.1314 0.868654C11.4315 1.16871 11.6 1.57568 11.6 2.00002V3.60002C11.6 4.02437 11.4315 4.43134 11.1314 4.7314C10.8313 5.03145 10.4244 5.20002 10 5.20002H8.40003C7.97568 5.20002 7.56871 5.03145 7.26865 4.7314C6.9686 4.43134 6.80002 4.02437 6.80002 3.60002V2.00002ZM6.80002 8.40003C6.80002 7.97568 6.9686 7.56871 7.26865 7.26865C7.56871 6.9686 7.97568 6.80002 8.40003 6.80002H10C10.4244 6.80002 10.8313 6.9686 11.1314 7.26865C11.4315 7.56871 11.6 7.97568 11.6 8.40003V10C11.6 10.4244 11.4315 10.8313 11.1314 11.1314C10.8313 11.4315 10.4244 11.6 10 11.6H8.40003C7.97568 11.6 7.56871 11.4315 7.26865 11.1314C6.9686 10.8313 6.80002 10.4244 6.80002 10V8.40003Z"
    fill="#90A4AE"
  />
</svg>
